<?xml version="1.0" encoding="utf-8" standalone="no"?>
<!DOCTYPE svg PUBLIC "-//W3C//DTD SVG 1.1//EN"
  "http://www.w3.org/Graphics/SVG/1.1/DTD/svg11.dtd">
<svg xmlns:xlink="http://www.w3.org/1999/xlink" width="216pt" height="576pt" viewBox="0 0 216 576" xmlns="http://www.w3.org/2000/svg" version="1.1">
 <metadata>
  <rdf:RDF xmlns:dc="http://purl.org/dc/elements/1.1/" xmlns:cc="http://creativecommons.org/ns#" xmlns:rdf="http://www.w3.org/1999/02/22-rdf-syntax-ns#">
   <cc:Work>
    <dc:type rdf:resource="http://purl.org/dc/dcmitype/StillImage"/>
    <dc:date>2024-06-15T09:48:13.996752</dc:date>
    <dc:format>image/svg+xml</dc:format>
    <dc:creator>
     <cc:Agent>
      <dc:title>Matplotlib v3.5.3, https://matplotlib.org/</dc:title>
     </cc:Agent>
    </dc:creator>
   </cc:Work>
  </rdf:RDF>
 </metadata>
 <defs>
  <style type="text/css">*{stroke-linejoin: round; stroke-linecap: butt}</style>
 </defs>
 <g id="figure_1">
  <g id="patch_1">
   <path d="M 0 576 
L 216 576 
L 216 0 
L 0 0 
z
" style="fill: #ffffff"/>
  </g>
  <g id="axes_1">
   <g id="patch_2">
    <path d="M 43.2 547.2 
L 211.68 547.2 
L 211.68 11.52 
L 43.2 11.52 
z
" style="fill: #ffffff"/>
   </g>
   <g id="patch_3">
    <path d="M 127.145305 522.850909 
L 148.426192 522.850909 
L 148.426192 518.029307 
L 127.145305 518.029307 
z
" clip-path="url(#pf8b7c36c61)" style="fill: #ed7d31"/>
   </g>
   <g id="patch_4">
    <path d="M 127.145305 516.823906 
L 150.4464 516.823906 
L 150.4464 512.002304 
L 127.145305 512.002304 
z
" clip-path="url(#pf8b7c36c61)" style="fill: #ed7d31"/>
   </g>
   <g id="patch_5">
    <path d="M 127.145305 510.796904 
L 151.310534 510.796904 
L 151.310534 505.975302 
L 127.145305 505.975302 
z
" clip-path="url(#pf8b7c36c61)" style="fill: #ed7d31"/>
   </g>
   <g id="patch_6">
    <path d="M 127.145305 504.769901 
L 151.821566 504.769901 
L 151.821566 499.948299 
L 127.145305 499.948299 
z
" clip-path="url(#pf8b7c36c61)" style="fill: #ed7d31"/>
   </g>
   <g id="patch_7">
    <path d="M 127.145305 498.742898 
L 152.737376 498.742898 
L 152.737376 493.921296 
L 127.145305 493.921296 
z
" clip-path="url(#pf8b7c36c61)" style="fill: #ed7d31"/>
   </g>
   <g id="patch_8">
    <path d="M 127.145305 492.715896 
L 154.108291 492.715896 
L 154.108291 487.894293 
L 127.145305 487.894293 
z
" clip-path="url(#pf8b7c36c61)" style="fill: #ed7d31"/>
   </g>
   <g id="patch_9">
    <path d="M 127.145305 486.688893 
L 154.26226 486.688893 
L 154.26226 481.867291 
L 127.145305 481.867291 
z
" clip-path="url(#pf8b7c36c61)" style="fill: #ed7d31"/>
   </g>
   <g id="patch_10">
    <path d="M 127.145305 480.66189 
L 155.519534 480.66189 
L 155.519534 475.840288 
L 127.145305 475.840288 
z
" clip-path="url(#pf8b7c36c61)" style="fill: #ed7d31"/>
   </g>
   <g id="patch_11">
    <path d="M 127.145305 474.634887 
L 156.170897 474.634887 
L 156.170897 469.813285 
L 127.145305 469.813285 
z
" clip-path="url(#pf8b7c36c61)" style="fill: #ed7d31"/>
   </g>
   <g id="patch_12">
    <path d="M 127.145305 468.607885 
L 156.221677 468.607885 
L 156.221677 463.786283 
L 127.145305 463.786283 
z
" clip-path="url(#pf8b7c36c61)" style="fill: #ed7d31"/>
   </g>
   <g id="patch_13">
    <path d="M 127.145305 462.580882 
L 157.146203 462.580882 
L 157.146203 457.75928 
L 127.145305 457.75928 
z
" clip-path="url(#pf8b7c36c61)" style="fill: #ed7d31"/>
   </g>
   <g id="patch_14">
    <path d="M 127.145305 456.553879 
L 157.380201 456.553879 
L 157.380201 451.732277 
L 127.145305 451.732277 
z
" clip-path="url(#pf8b7c36c61)" style="fill: #ed7d31"/>
   </g>
   <g id="patch_15">
    <path d="M 127.145305 450.526877 
L 157.483757 450.526877 
L 157.483757 445.705275 
L 127.145305 445.705275 
z
" clip-path="url(#pf8b7c36c61)" style="fill: #ed7d31"/>
   </g>
   <g id="patch_16">
    <path d="M 127.145305 444.499874 
L 158.195311 444.499874 
L 158.195311 439.678272 
L 127.145305 439.678272 
z
" clip-path="url(#pf8b7c36c61)" style="fill: #ed7d31"/>
   </g>
   <g id="patch_17">
    <path d="M 127.145305 438.472871 
L 158.806004 438.472871 
L 158.806004 433.651269 
L 127.145305 433.651269 
z
" clip-path="url(#pf8b7c36c61)" style="fill: #ed7d31"/>
   </g>
   <g id="patch_18">
    <path d="M 127.145305 432.445869 
L 159.45072 432.445869 
L 159.45072 427.624266 
L 127.145305 427.624266 
z
" clip-path="url(#pf8b7c36c61)" style="fill: #ed7d31"/>
   </g>
   <g id="patch_19">
    <path d="M 127.145305 426.418866 
L 161.150323 426.418866 
L 161.150323 421.597264 
L 127.145305 421.597264 
z
" clip-path="url(#pf8b7c36c61)" style="fill: #ed7d31"/>
   </g>
   <g id="patch_20">
    <path d="M 127.145305 420.391863 
L 161.834951 420.391863 
L 161.834951 415.570261 
L 127.145305 415.570261 
z
" clip-path="url(#pf8b7c36c61)" style="fill: #ed7d31"/>
   </g>
   <g id="patch_21">
    <path d="M 127.145305 414.36486 
L 163.678661 414.36486 
L 163.678661 409.543258 
L 127.145305 409.543258 
z
" clip-path="url(#pf8b7c36c61)" style="fill: #ed7d31"/>
   </g>
   <g id="patch_22">
    <path d="M 127.145305 408.337858 
L 166.16294 408.337858 
L 166.16294 403.516256 
L 127.145305 403.516256 
z
" clip-path="url(#pf8b7c36c61)" style="fill: #ed7d31"/>
   </g>
   <g id="patch_23">
    <path d="M 127.145305 402.310855 
L 167.114531 402.310855 
L 167.114531 397.489253 
L 127.145305 397.489253 
z
" clip-path="url(#pf8b7c36c61)" style="fill: #ed7d31"/>
   </g>
   <g id="patch_24">
    <path d="M 127.145305 396.283852 
L 167.746528 396.283852 
L 167.746528 391.46225 
L 127.145305 391.46225 
z
" clip-path="url(#pf8b7c36c61)" style="fill: #ed7d31"/>
   </g>
   <g id="patch_25">
    <path d="M 127.145305 390.25685 
L 169.619256 390.25685 
L 169.619256 385.435248 
L 127.145305 385.435248 
z
" clip-path="url(#pf8b7c36c61)" style="fill: #ed7d31"/>
   </g>
   <g id="patch_26">
    <path d="M 127.145305 384.229847 
L 169.650381 384.229847 
L 169.650381 379.408245 
L 127.145305 379.408245 
z
" clip-path="url(#pf8b7c36c61)" style="fill: #ed7d31"/>
   </g>
   <g id="patch_27">
    <path d="M 127.145305 378.202844 
L 176.095751 378.202844 
L 176.095751 373.381242 
L 127.145305 373.381242 
z
" clip-path="url(#pf8b7c36c61)" style="fill: #ed7d31"/>
   </g>
   <g id="patch_28">
    <path d="M 127.145305 372.175842 
L 181.059405 372.175842 
L 181.059405 367.354239 
L 127.145305 367.354239 
z
" clip-path="url(#pf8b7c36c61)" style="fill: #ed7d31"/>
   </g>
   <g id="patch_29">
    <path d="M 127.145305 366.148839 
L 181.554561 366.148839 
L 181.554561 361.327237 
L 127.145305 361.327237 
z
" clip-path="url(#pf8b7c36c61)" style="fill: #ed7d31"/>
   </g>
   <g id="patch_30">
    <path d="M 127.145305 360.121836 
L 204.021818 360.121836 
L 204.021818 355.300234 
L 127.145305 355.300234 
z
" clip-path="url(#pf8b7c36c61)" style="fill: #ed7d31"/>
   </g>
   <g id="patch_31">
    <path d="M 127.145305 354.094833 
L 105.991404 354.094833 
L 105.991404 349.273231 
L 127.145305 349.273231 
z
" clip-path="url(#pf8b7c36c61)" style="fill: #4876ca"/>
   </g>
   <g id="patch_32">
    <path d="M 127.145305 348.067831 
L 105.470773 348.067831 
L 105.470773 343.246229 
L 127.145305 343.246229 
z
" clip-path="url(#pf8b7c36c61)" style="fill: #4876ca"/>
   </g>
   <g id="patch_33">
    <path d="M 127.145305 342.040828 
L 104.691315 342.040828 
L 104.691315 337.219226 
L 127.145305 337.219226 
z
" clip-path="url(#pf8b7c36c61)" style="fill: #4876ca"/>
   </g>
   <g id="patch_34">
    <path d="M 127.145305 336.013825 
L 103.90432 336.013825 
L 103.90432 331.192223 
L 127.145305 331.192223 
z
" clip-path="url(#pf8b7c36c61)" style="fill: #4876ca"/>
   </g>
   <g id="patch_35">
    <path d="M 127.145305 329.986823 
L 103.443801 329.986823 
L 103.443801 325.165221 
L 127.145305 325.165221 
z
" clip-path="url(#pf8b7c36c61)" style="fill: #4876ca"/>
   </g>
   <g id="patch_36">
    <path d="M 127.145305 323.95982 
L 102.151367 323.95982 
L 102.151367 319.138218 
L 127.145305 319.138218 
z
" clip-path="url(#pf8b7c36c61)" style="fill: #4876ca"/>
   </g>
   <g id="patch_37">
    <path d="M 127.145305 317.932817 
L 101.941116 317.932817 
L 101.941116 313.111215 
L 127.145305 313.111215 
z
" clip-path="url(#pf8b7c36c61)" style="fill: #4876ca"/>
   </g>
   <g id="patch_38">
    <path d="M 127.145305 311.905815 
L 101.804212 311.905815 
L 101.804212 307.084212 
L 127.145305 307.084212 
z
" clip-path="url(#pf8b7c36c61)" style="fill: #4876ca"/>
   </g>
   <g id="patch_39">
    <path d="M 127.145305 305.878812 
L 101.421292 305.878812 
L 101.421292 301.05721 
L 127.145305 301.05721 
z
" clip-path="url(#pf8b7c36c61)" style="fill: #4876ca"/>
   </g>
   <g id="patch_40">
    <path d="M 127.145305 299.851809 
L 101.132786 299.851809 
L 101.132786 295.030207 
L 127.145305 295.030207 
z
" clip-path="url(#pf8b7c36c61)" style="fill: #4876ca"/>
   </g>
   <g id="patch_41">
    <path d="M 127.145305 293.824806 
L 100.645925 293.824806 
L 100.645925 289.003204 
L 127.145305 289.003204 
z
" clip-path="url(#pf8b7c36c61)" style="fill: #4876ca"/>
   </g>
   <g id="patch_42">
    <path d="M 127.145305 287.797804 
L 99.874544 287.797804 
L 99.874544 282.976202 
L 127.145305 282.976202 
z
" clip-path="url(#pf8b7c36c61)" style="fill: #4876ca"/>
   </g>
   <g id="patch_43">
    <path d="M 127.145305 281.770801 
L 99.112791 281.770801 
L 99.112791 276.949199 
L 127.145305 276.949199 
z
" clip-path="url(#pf8b7c36c61)" style="fill: #4876ca"/>
   </g>
   <g id="patch_44">
    <path d="M 127.145305 275.743798 
L 98.914396 275.743798 
L 98.914396 270.922196 
L 127.145305 270.922196 
z
" clip-path="url(#pf8b7c36c61)" style="fill: #4876ca"/>
   </g>
   <g id="patch_45">
    <path d="M 127.145305 269.716796 
L 98.888814 269.716796 
L 98.888814 264.895194 
L 127.145305 264.895194 
z
" clip-path="url(#pf8b7c36c61)" style="fill: #4876ca"/>
   </g>
   <g id="patch_46">
    <path d="M 127.145305 263.689793 
L 98.819809 263.689793 
L 98.819809 258.868191 
L 127.145305 258.868191 
z
" clip-path="url(#pf8b7c36c61)" style="fill: #4876ca"/>
   </g>
   <g id="patch_47">
    <path d="M 127.145305 257.66279 
L 98.358264 257.66279 
L 98.358264 252.841188 
L 127.145305 252.841188 
z
" clip-path="url(#pf8b7c36c61)" style="fill: #4876ca"/>
   </g>
   <g id="patch_48">
    <path d="M 127.145305 251.635788 
L 97.907342 251.635788 
L 97.907342 246.814185 
L 127.145305 246.814185 
z
" clip-path="url(#pf8b7c36c61)" style="fill: #4876ca"/>
   </g>
   <g id="patch_49">
    <path d="M 127.145305 245.608785 
L 95.940998 245.608785 
L 95.940998 240.787183 
L 127.145305 240.787183 
z
" clip-path="url(#pf8b7c36c61)" style="fill: #4876ca"/>
   </g>
   <g id="patch_50">
    <path d="M 127.145305 239.581782 
L 95.611981 239.581782 
L 95.611981 234.76018 
L 127.145305 234.76018 
z
" clip-path="url(#pf8b7c36c61)" style="fill: #4876ca"/>
   </g>
   <g id="patch_51">
    <path d="M 127.145305 233.554779 
L 95.245616 233.554779 
L 95.245616 228.733177 
L 127.145305 228.733177 
z
" clip-path="url(#pf8b7c36c61)" style="fill: #4876ca"/>
   </g>
   <g id="patch_52">
    <path d="M 127.145305 227.527777 
L 94.863465 227.527777 
L 94.863465 222.706175 
L 127.145305 222.706175 
z
" clip-path="url(#pf8b7c36c61)" style="fill: #4876ca"/>
   </g>
   <g id="patch_53">
    <path d="M 127.145305 221.500774 
L 93.63956 221.500774 
L 93.63956 216.679172 
L 127.145305 216.679172 
z
" clip-path="url(#pf8b7c36c61)" style="fill: #4876ca"/>
   </g>
   <g id="patch_54">
    <path d="M 127.145305 215.473771 
L 93.278874 215.473771 
L 93.278874 210.652169 
L 127.145305 210.652169 
z
" clip-path="url(#pf8b7c36c61)" style="fill: #4876ca"/>
   </g>
   <g id="patch_55">
    <path d="M 127.145305 209.446769 
L 92.973965 209.446769 
L 92.973965 204.625167 
L 127.145305 204.625167 
z
" clip-path="url(#pf8b7c36c61)" style="fill: #4876ca"/>
   </g>
   <g id="patch_56">
    <path d="M 127.145305 203.419766 
L 92.827702 203.419766 
L 92.827702 198.598164 
L 127.145305 198.598164 
z
" clip-path="url(#pf8b7c36c61)" style="fill: #4876ca"/>
   </g>
   <g id="patch_57">
    <path d="M 127.145305 197.392763 
L 92.450153 197.392763 
L 92.450153 192.571161 
L 127.145305 192.571161 
z
" clip-path="url(#pf8b7c36c61)" style="fill: #4876ca"/>
   </g>
   <g id="patch_58">
    <path d="M 127.145305 191.365761 
L 91.003511 191.365761 
L 91.003511 186.544158 
L 127.145305 186.544158 
z
" clip-path="url(#pf8b7c36c61)" style="fill: #4876ca"/>
   </g>
   <g id="patch_59">
    <path d="M 127.145305 185.338758 
L 90.380838 185.338758 
L 90.380838 180.517156 
L 127.145305 180.517156 
z
" clip-path="url(#pf8b7c36c61)" style="fill: #4876ca"/>
   </g>
   <g id="patch_60">
    <path d="M 127.145305 179.311755 
L 89.92004 179.311755 
L 89.92004 174.490153 
L 127.145305 174.490153 
z
" clip-path="url(#pf8b7c36c61)" style="fill: #4876ca"/>
   </g>
   <g id="patch_61">
    <path d="M 127.145305 173.284752 
L 89.743245 173.284752 
L 89.743245 168.46315 
L 127.145305 168.46315 
z
" clip-path="url(#pf8b7c36c61)" style="fill: #4876ca"/>
   </g>
   <g id="patch_62">
    <path d="M 127.145305 167.25775 
L 89.741765 167.25775 
L 89.741765 162.436148 
L 127.145305 162.436148 
z
" clip-path="url(#pf8b7c36c61)" style="fill: #4876ca"/>
   </g>
   <g id="patch_63">
    <path d="M 127.145305 161.230747 
L 89.514195 161.230747 
L 89.514195 156.409145 
L 127.145305 156.409145 
z
" clip-path="url(#pf8b7c36c61)" style="fill: #4876ca"/>
   </g>
   <g id="patch_64">
    <path d="M 127.145305 155.203744 
L 89.323506 155.203744 
L 89.323506 150.382142 
L 127.145305 150.382142 
z
" clip-path="url(#pf8b7c36c61)" style="fill: #4876ca"/>
   </g>
   <g id="patch_65">
    <path d="M 127.145305 149.176742 
L 88.229384 149.176742 
L 88.229384 144.35514 
L 127.145305 144.35514 
z
" clip-path="url(#pf8b7c36c61)" style="fill: #4876ca"/>
   </g>
   <g id="patch_66">
    <path d="M 127.145305 143.149739 
L 87.704948 143.149739 
L 87.704948 138.328137 
L 127.145305 138.328137 
z
" clip-path="url(#pf8b7c36c61)" style="fill: #4876ca"/>
   </g>
   <g id="patch_67">
    <path d="M 127.145305 137.122736 
L 87.621027 137.122736 
L 87.621027 132.301134 
L 127.145305 132.301134 
z
" clip-path="url(#pf8b7c36c61)" style="fill: #4876ca"/>
   </g>
   <g id="patch_68">
    <path d="M 127.145305 131.095734 
L 86.399879 131.095734 
L 86.399879 126.274131 
L 127.145305 126.274131 
z
" clip-path="url(#pf8b7c36c61)" style="fill: #4876ca"/>
   </g>
   <g id="patch_69">
    <path d="M 127.145305 125.068731 
L 85.808832 125.068731 
L 85.808832 120.247129 
L 127.145305 120.247129 
z
" clip-path="url(#pf8b7c36c61)" style="fill: #4876ca"/>
   </g>
   <g id="patch_70">
    <path d="M 127.145305 119.041728 
L 84.051864 119.041728 
L 84.051864 114.220126 
L 127.145305 114.220126 
z
" clip-path="url(#pf8b7c36c61)" style="fill: #4876ca"/>
   </g>
   <g id="patch_71">
    <path d="M 127.145305 113.014725 
L 80.144893 113.014725 
L 80.144893 108.193123 
L 127.145305 108.193123 
z
" clip-path="url(#pf8b7c36c61)" style="fill: #4876ca"/>
   </g>
   <g id="patch_72">
    <path d="M 127.145305 106.987723 
L 79.971872 106.987723 
L 79.971872 102.166121 
L 127.145305 102.166121 
z
" clip-path="url(#pf8b7c36c61)" style="fill: #4876ca"/>
   </g>
   <g id="patch_73">
    <path d="M 127.145305 100.96072 
L 78.927327 100.96072 
L 78.927327 96.139118 
L 127.145305 96.139118 
z
" clip-path="url(#pf8b7c36c61)" style="fill: #4876ca"/>
   </g>
   <g id="patch_74">
    <path d="M 127.145305 94.933717 
L 78.809349 94.933717 
L 78.809349 90.112115 
L 127.145305 90.112115 
z
" clip-path="url(#pf8b7c36c61)" style="fill: #4876ca"/>
   </g>
   <g id="patch_75">
    <path d="M 127.145305 88.906715 
L 77.812085 88.906715 
L 77.812085 84.085113 
L 127.145305 84.085113 
z
" clip-path="url(#pf8b7c36c61)" style="fill: #4876ca"/>
   </g>
   <g id="patch_76">
    <path d="M 127.145305 82.879712 
L 73.508543 82.879712 
L 73.508543 78.05811 
L 127.145305 78.05811 
z
" clip-path="url(#pf8b7c36c61)" style="fill: #4876ca"/>
   </g>
   <g id="patch_77">
    <path d="M 127.145305 76.852709 
L 70.973325 76.852709 
L 70.973325 72.031107 
L 127.145305 72.031107 
z
" clip-path="url(#pf8b7c36c61)" style="fill: #4876ca"/>
   </g>
   <g id="patch_78">
    <path d="M 127.145305 70.825707 
L 70.431865 70.825707 
L 70.431865 66.004104 
L 127.145305 66.004104 
z
" clip-path="url(#pf8b7c36c61)" style="fill: #4876ca"/>
   </g>
   <g id="patch_79">
    <path d="M 127.145305 64.798704 
L 69.410506 64.798704 
L 69.410506 59.977102 
L 127.145305 59.977102 
z
" clip-path="url(#pf8b7c36c61)" style="fill: #4876ca"/>
   </g>
   <g id="patch_80">
    <path d="M 127.145305 58.771701 
L 68.835024 58.771701 
L 68.835024 53.950099 
L 127.145305 53.950099 
z
" clip-path="url(#pf8b7c36c61)" style="fill: #4876ca"/>
   </g>
   <g id="patch_81">
    <path d="M 127.145305 52.744698 
L 65.630568 52.744698 
L 65.630568 47.923096 
L 127.145305 47.923096 
z
" clip-path="url(#pf8b7c36c61)" style="fill: #4876ca"/>
   </g>
   <g id="patch_82">
    <path d="M 127.145305 46.717696 
L 57.812234 46.717696 
L 57.812234 41.896094 
L 127.145305 41.896094 
z
" clip-path="url(#pf8b7c36c61)" style="fill: #4876ca"/>
   </g>
   <g id="patch_83">
    <path d="M 127.145305 40.690693 
L 50.858182 40.690693 
L 50.858182 35.869091 
L 127.145305 35.869091 
z
" clip-path="url(#pf8b7c36c61)" style="fill: #4876ca"/>
   </g>
   <g id="matplotlib.axis_1">
    <g id="xtick_1">
     <g id="line2d_1">
      <defs>
       <path id="m9c2ab1b70b" d="M 0 0 
L 0 2 
" style="stroke: #000000"/>
      </defs>
      <g>
       <use xlink:href="#m9c2ab1b70b" x="49.272043" y="547.2" style="stroke: #000000"/>
      </g>
     </g>
     <g id="text_1">
      <!-- −8 -->
      <g transform="translate(44.711418 559.92625)scale(0.08 -0.08)">
       <defs>
        <path id="ArialMT-2212" d="M 3381 1997 
L 356 1997 
L 356 2522 
L 3381 2522 
L 3381 1997 
z
" transform="scale(0.015625)"/>
        <path id="ArialMT-38" d="M 1131 2484 
Q 781 2613 612 2850 
Q 444 3088 444 3419 
Q 444 3919 803 4259 
Q 1163 4600 1759 4600 
Q 2359 4600 2725 4251 
Q 3091 3903 3091 3403 
Q 3091 3084 2923 2848 
Q 2756 2613 2416 2484 
Q 2838 2347 3058 2040 
Q 3278 1734 3278 1309 
Q 3278 722 2862 322 
Q 2447 -78 1769 -78 
Q 1091 -78 675 323 
Q 259 725 259 1325 
Q 259 1772 486 2073 
Q 713 2375 1131 2484 
z
M 1019 3438 
Q 1019 3113 1228 2906 
Q 1438 2700 1772 2700 
Q 2097 2700 2305 2904 
Q 2513 3109 2513 3406 
Q 2513 3716 2298 3927 
Q 2084 4138 1766 4138 
Q 1444 4138 1231 3931 
Q 1019 3725 1019 3438 
z
M 838 1322 
Q 838 1081 952 856 
Q 1066 631 1291 507 
Q 1516 384 1775 384 
Q 2178 384 2440 643 
Q 2703 903 2703 1303 
Q 2703 1709 2433 1975 
Q 2163 2241 1756 2241 
Q 1359 2241 1098 1978 
Q 838 1716 838 1322 
z
" transform="scale(0.015625)"/>
       </defs>
       <use xlink:href="#ArialMT-2212"/>
       <use xlink:href="#ArialMT-38" x="58.398438"/>
      </g>
     </g>
    </g>
    <g id="xtick_2">
     <g id="line2d_2">
      <g>
       <use xlink:href="#m9c2ab1b70b" x="88.208674" y="547.2" style="stroke: #000000"/>
      </g>
     </g>
     <g id="text_2">
      <!-- −4 -->
      <g transform="translate(83.648049 559.92625)scale(0.08 -0.08)">
       <defs>
        <path id="ArialMT-34" d="M 2069 0 
L 2069 1097 
L 81 1097 
L 81 1613 
L 2172 4581 
L 2631 4581 
L 2631 1613 
L 3250 1613 
L 3250 1097 
L 2631 1097 
L 2631 0 
L 2069 0 
z
M 2069 1613 
L 2069 3678 
L 634 1613 
L 2069 1613 
z
" transform="scale(0.015625)"/>
       </defs>
       <use xlink:href="#ArialMT-2212"/>
       <use xlink:href="#ArialMT-34" x="58.398438"/>
      </g>
     </g>
    </g>
    <g id="xtick_3">
     <g id="line2d_3">
      <g>
       <use xlink:href="#m9c2ab1b70b" x="127.145305" y="547.2" style="stroke: #000000"/>
      </g>
     </g>
     <g id="text_3">
      <!-- 0 -->
      <g transform="translate(124.92093 559.92625)scale(0.08 -0.08)">
       <defs>
        <path id="ArialMT-30" d="M 266 2259 
Q 266 3072 433 3567 
Q 600 4063 929 4331 
Q 1259 4600 1759 4600 
Q 2128 4600 2406 4451 
Q 2684 4303 2865 4023 
Q 3047 3744 3150 3342 
Q 3253 2941 3253 2259 
Q 3253 1453 3087 958 
Q 2922 463 2592 192 
Q 2263 -78 1759 -78 
Q 1097 -78 719 397 
Q 266 969 266 2259 
z
M 844 2259 
Q 844 1131 1108 757 
Q 1372 384 1759 384 
Q 2147 384 2411 759 
Q 2675 1134 2675 2259 
Q 2675 3391 2411 3762 
Q 2147 4134 1753 4134 
Q 1366 4134 1134 3806 
Q 844 3388 844 2259 
z
" transform="scale(0.015625)"/>
       </defs>
       <use xlink:href="#ArialMT-30"/>
      </g>
     </g>
    </g>
    <g id="xtick_4">
     <g id="line2d_4">
      <g>
       <use xlink:href="#m9c2ab1b70b" x="166.081935" y="547.2" style="stroke: #000000"/>
      </g>
     </g>
     <g id="text_4">
      <!-- 4 -->
      <g transform="translate(163.85756 559.92625)scale(0.08 -0.08)">
       <use xlink:href="#ArialMT-34"/>
      </g>
     </g>
    </g>
    <g id="xtick_5">
     <g id="line2d_5">
      <g>
       <use xlink:href="#m9c2ab1b70b" x="205.018566" y="547.2" style="stroke: #000000"/>
      </g>
     </g>
     <g id="text_5">
      <!-- 8 -->
      <g transform="translate(202.794191 559.92625)scale(0.08 -0.08)">
       <use xlink:href="#ArialMT-38"/>
      </g>
     </g>
    </g>
    <g id="text_6">
     <!-- Abundance variation -->
     <g transform="translate(75.576719 571.114687)scale(0.1 -0.1)">
      <defs>
       <path id="DejaVuSans-41" d="M 2188 4044 
L 1331 1722 
L 3047 1722 
L 2188 4044 
z
M 1831 4666 
L 2547 4666 
L 4325 0 
L 3669 0 
L 3244 1197 
L 1141 1197 
L 716 0 
L 50 0 
L 1831 4666 
z
" transform="scale(0.015625)"/>
       <path id="DejaVuSans-62" d="M 3116 1747 
Q 3116 2381 2855 2742 
Q 2594 3103 2138 3103 
Q 1681 3103 1420 2742 
Q 1159 2381 1159 1747 
Q 1159 1113 1420 752 
Q 1681 391 2138 391 
Q 2594 391 2855 752 
Q 3116 1113 3116 1747 
z
M 1159 2969 
Q 1341 3281 1617 3432 
Q 1894 3584 2278 3584 
Q 2916 3584 3314 3078 
Q 3713 2572 3713 1747 
Q 3713 922 3314 415 
Q 2916 -91 2278 -91 
Q 1894 -91 1617 61 
Q 1341 213 1159 525 
L 1159 0 
L 581 0 
L 581 4863 
L 1159 4863 
L 1159 2969 
z
" transform="scale(0.015625)"/>
       <path id="DejaVuSans-75" d="M 544 1381 
L 544 3500 
L 1119 3500 
L 1119 1403 
Q 1119 906 1312 657 
Q 1506 409 1894 409 
Q 2359 409 2629 706 
Q 2900 1003 2900 1516 
L 2900 3500 
L 3475 3500 
L 3475 0 
L 2900 0 
L 2900 538 
Q 2691 219 2414 64 
Q 2138 -91 1772 -91 
Q 1169 -91 856 284 
Q 544 659 544 1381 
z
M 1991 3584 
L 1991 3584 
z
" transform="scale(0.015625)"/>
       <path id="DejaVuSans-6e" d="M 3513 2113 
L 3513 0 
L 2938 0 
L 2938 2094 
Q 2938 2591 2744 2837 
Q 2550 3084 2163 3084 
Q 1697 3084 1428 2787 
Q 1159 2491 1159 1978 
L 1159 0 
L 581 0 
L 581 3500 
L 1159 3500 
L 1159 2956 
Q 1366 3272 1645 3428 
Q 1925 3584 2291 3584 
Q 2894 3584 3203 3211 
Q 3513 2838 3513 2113 
z
" transform="scale(0.015625)"/>
       <path id="DejaVuSans-64" d="M 2906 2969 
L 2906 4863 
L 3481 4863 
L 3481 0 
L 2906 0 
L 2906 525 
Q 2725 213 2448 61 
Q 2172 -91 1784 -91 
Q 1150 -91 751 415 
Q 353 922 353 1747 
Q 353 2572 751 3078 
Q 1150 3584 1784 3584 
Q 2172 3584 2448 3432 
Q 2725 3281 2906 2969 
z
M 947 1747 
Q 947 1113 1208 752 
Q 1469 391 1925 391 
Q 2381 391 2643 752 
Q 2906 1113 2906 1747 
Q 2906 2381 2643 2742 
Q 2381 3103 1925 3103 
Q 1469 3103 1208 2742 
Q 947 2381 947 1747 
z
" transform="scale(0.015625)"/>
       <path id="DejaVuSans-61" d="M 2194 1759 
Q 1497 1759 1228 1600 
Q 959 1441 959 1056 
Q 959 750 1161 570 
Q 1363 391 1709 391 
Q 2188 391 2477 730 
Q 2766 1069 2766 1631 
L 2766 1759 
L 2194 1759 
z
M 3341 1997 
L 3341 0 
L 2766 0 
L 2766 531 
Q 2569 213 2275 61 
Q 1981 -91 1556 -91 
Q 1019 -91 701 211 
Q 384 513 384 1019 
Q 384 1609 779 1909 
Q 1175 2209 1959 2209 
L 2766 2209 
L 2766 2266 
Q 2766 2663 2505 2880 
Q 2244 3097 1772 3097 
Q 1472 3097 1187 3025 
Q 903 2953 641 2809 
L 641 3341 
Q 956 3463 1253 3523 
Q 1550 3584 1831 3584 
Q 2591 3584 2966 3190 
Q 3341 2797 3341 1997 
z
" transform="scale(0.015625)"/>
       <path id="DejaVuSans-63" d="M 3122 3366 
L 3122 2828 
Q 2878 2963 2633 3030 
Q 2388 3097 2138 3097 
Q 1578 3097 1268 2742 
Q 959 2388 959 1747 
Q 959 1106 1268 751 
Q 1578 397 2138 397 
Q 2388 397 2633 464 
Q 2878 531 3122 666 
L 3122 134 
Q 2881 22 2623 -34 
Q 2366 -91 2075 -91 
Q 1284 -91 818 406 
Q 353 903 353 1747 
Q 353 2603 823 3093 
Q 1294 3584 2113 3584 
Q 2378 3584 2631 3529 
Q 2884 3475 3122 3366 
z
" transform="scale(0.015625)"/>
       <path id="DejaVuSans-65" d="M 3597 1894 
L 3597 1613 
L 953 1613 
Q 991 1019 1311 708 
Q 1631 397 2203 397 
Q 2534 397 2845 478 
Q 3156 559 3463 722 
L 3463 178 
Q 3153 47 2828 -22 
Q 2503 -91 2169 -91 
Q 1331 -91 842 396 
Q 353 884 353 1716 
Q 353 2575 817 3079 
Q 1281 3584 2069 3584 
Q 2775 3584 3186 3129 
Q 3597 2675 3597 1894 
z
M 3022 2063 
Q 3016 2534 2758 2815 
Q 2500 3097 2075 3097 
Q 1594 3097 1305 2825 
Q 1016 2553 972 2059 
L 3022 2063 
z
" transform="scale(0.015625)"/>
       <path id="DejaVuSans-20" transform="scale(0.015625)"/>
       <path id="DejaVuSans-76" d="M 191 3500 
L 800 3500 
L 1894 563 
L 2988 3500 
L 3597 3500 
L 2284 0 
L 1503 0 
L 191 3500 
z
" transform="scale(0.015625)"/>
       <path id="DejaVuSans-72" d="M 2631 2963 
Q 2534 3019 2420 3045 
Q 2306 3072 2169 3072 
Q 1681 3072 1420 2755 
Q 1159 2438 1159 1844 
L 1159 0 
L 581 0 
L 581 3500 
L 1159 3500 
L 1159 2956 
Q 1341 3275 1631 3429 
Q 1922 3584 2338 3584 
Q 2397 3584 2469 3576 
Q 2541 3569 2628 3553 
L 2631 2963 
z
" transform="scale(0.015625)"/>
       <path id="DejaVuSans-69" d="M 603 3500 
L 1178 3500 
L 1178 0 
L 603 0 
L 603 3500 
z
M 603 4863 
L 1178 4863 
L 1178 4134 
L 603 4134 
L 603 4863 
z
" transform="scale(0.015625)"/>
       <path id="DejaVuSans-74" d="M 1172 4494 
L 1172 3500 
L 2356 3500 
L 2356 3053 
L 1172 3053 
L 1172 1153 
Q 1172 725 1289 603 
Q 1406 481 1766 481 
L 2356 481 
L 2356 0 
L 1766 0 
Q 1100 0 847 248 
Q 594 497 594 1153 
L 594 3053 
L 172 3053 
L 172 3500 
L 594 3500 
L 594 4494 
L 1172 4494 
z
" transform="scale(0.015625)"/>
       <path id="DejaVuSans-6f" d="M 1959 3097 
Q 1497 3097 1228 2736 
Q 959 2375 959 1747 
Q 959 1119 1226 758 
Q 1494 397 1959 397 
Q 2419 397 2687 759 
Q 2956 1122 2956 1747 
Q 2956 2369 2687 2733 
Q 2419 3097 1959 3097 
z
M 1959 3584 
Q 2709 3584 3137 3096 
Q 3566 2609 3566 1747 
Q 3566 888 3137 398 
Q 2709 -91 1959 -91 
Q 1206 -91 779 398 
Q 353 888 353 1747 
Q 353 2609 779 3096 
Q 1206 3584 1959 3584 
z
" transform="scale(0.015625)"/>
      </defs>
      <use xlink:href="#DejaVuSans-41"/>
      <use xlink:href="#DejaVuSans-62" x="68.408203"/>
      <use xlink:href="#DejaVuSans-75" x="131.884766"/>
      <use xlink:href="#DejaVuSans-6e" x="195.263672"/>
      <use xlink:href="#DejaVuSans-64" x="258.642578"/>
      <use xlink:href="#DejaVuSans-61" x="322.119141"/>
      <use xlink:href="#DejaVuSans-6e" x="383.398438"/>
      <use xlink:href="#DejaVuSans-63" x="446.777344"/>
      <use xlink:href="#DejaVuSans-65" x="501.757812"/>
      <use xlink:href="#DejaVuSans-20" x="563.28125"/>
      <use xlink:href="#DejaVuSans-76" x="595.068359"/>
      <use xlink:href="#DejaVuSans-61" x="654.248047"/>
      <use xlink:href="#DejaVuSans-72" x="715.527344"/>
      <use xlink:href="#DejaVuSans-69" x="756.640625"/>
      <use xlink:href="#DejaVuSans-61" x="784.423828"/>
      <use xlink:href="#DejaVuSans-74" x="845.703125"/>
      <use xlink:href="#DejaVuSans-69" x="884.912109"/>
      <use xlink:href="#DejaVuSans-6f" x="912.695312"/>
      <use xlink:href="#DejaVuSans-6e" x="973.876953"/>
     </g>
    </g>
   </g>
   <g id="matplotlib.axis_2">
    <g id="ytick_1">
     <g id="text_7">
      <!-- MAMDC2 -->
      <g transform="translate(18.86625 523.303233)scale(0.08 -0.08)">
       <defs>
        <path id="ArialMT-4d" d="M 475 0 
L 475 4581 
L 1388 4581 
L 2472 1338 
Q 2622 884 2691 659 
Q 2769 909 2934 1394 
L 4031 4581 
L 4847 4581 
L 4847 0 
L 4263 0 
L 4263 3834 
L 2931 0 
L 2384 0 
L 1059 3900 
L 1059 0 
L 475 0 
z
" transform="scale(0.015625)"/>
        <path id="ArialMT-41" d="M -9 0 
L 1750 4581 
L 2403 4581 
L 4278 0 
L 3588 0 
L 3053 1388 
L 1138 1388 
L 634 0 
L -9 0 
z
M 1313 1881 
L 2866 1881 
L 2388 3150 
Q 2169 3728 2063 4100 
Q 1975 3659 1816 3225 
L 1313 1881 
z
" transform="scale(0.015625)"/>
        <path id="ArialMT-44" d="M 494 0 
L 494 4581 
L 2072 4581 
Q 2606 4581 2888 4516 
Q 3281 4425 3559 4188 
Q 3922 3881 4101 3404 
Q 4281 2928 4281 2316 
Q 4281 1794 4159 1391 
Q 4038 988 3847 723 
Q 3656 459 3429 307 
Q 3203 156 2883 78 
Q 2563 0 2147 0 
L 494 0 
z
M 1100 541 
L 2078 541 
Q 2531 541 2789 625 
Q 3047 709 3200 863 
Q 3416 1078 3536 1442 
Q 3656 1806 3656 2325 
Q 3656 3044 3420 3430 
Q 3184 3816 2847 3947 
Q 2603 4041 2063 4041 
L 1100 4041 
L 1100 541 
z
" transform="scale(0.015625)"/>
        <path id="ArialMT-43" d="M 3763 1606 
L 4369 1453 
Q 4178 706 3683 314 
Q 3188 -78 2472 -78 
Q 1731 -78 1267 223 
Q 803 525 561 1097 
Q 319 1669 319 2325 
Q 319 3041 592 3573 
Q 866 4106 1370 4382 
Q 1875 4659 2481 4659 
Q 3169 4659 3637 4309 
Q 4106 3959 4291 3325 
L 3694 3184 
Q 3534 3684 3231 3912 
Q 2928 4141 2469 4141 
Q 1941 4141 1586 3887 
Q 1231 3634 1087 3207 
Q 944 2781 944 2328 
Q 944 1744 1114 1308 
Q 1284 872 1643 656 
Q 2003 441 2422 441 
Q 2931 441 3284 734 
Q 3638 1028 3763 1606 
z
" transform="scale(0.015625)"/>
        <path id="ArialMT-32" d="M 3222 541 
L 3222 0 
L 194 0 
Q 188 203 259 391 
Q 375 700 629 1000 
Q 884 1300 1366 1694 
Q 2113 2306 2375 2664 
Q 2638 3022 2638 3341 
Q 2638 3675 2398 3904 
Q 2159 4134 1775 4134 
Q 1369 4134 1125 3890 
Q 881 3647 878 3216 
L 300 3275 
Q 359 3922 746 4261 
Q 1134 4600 1788 4600 
Q 2447 4600 2831 4234 
Q 3216 3869 3216 3328 
Q 3216 3053 3103 2787 
Q 2991 2522 2730 2228 
Q 2469 1934 1863 1422 
Q 1356 997 1212 845 
Q 1069 694 975 541 
L 3222 541 
z
" transform="scale(0.015625)"/>
       </defs>
       <use xlink:href="#ArialMT-4d"/>
       <use xlink:href="#ArialMT-41" x="83.300781"/>
       <use xlink:href="#ArialMT-4d" x="150"/>
       <use xlink:href="#ArialMT-44" x="233.300781"/>
       <use xlink:href="#ArialMT-43" x="305.517578"/>
       <use xlink:href="#ArialMT-32" x="377.734375"/>
      </g>
     </g>
    </g>
    <g id="ytick_2">
     <g id="text_8">
      <!-- APOD -->
      <g transform="translate(24.86375 517.27623)scale(0.08 -0.08)">
       <defs>
        <path id="ArialMT-50" d="M 494 0 
L 494 4581 
L 2222 4581 
Q 2678 4581 2919 4538 
Q 3256 4481 3484 4323 
Q 3713 4166 3852 3881 
Q 3991 3597 3991 3256 
Q 3991 2672 3619 2267 
Q 3247 1863 2275 1863 
L 1100 1863 
L 1100 0 
L 494 0 
z
M 1100 2403 
L 2284 2403 
Q 2872 2403 3119 2622 
Q 3366 2841 3366 3238 
Q 3366 3525 3220 3729 
Q 3075 3934 2838 4000 
Q 2684 4041 2272 4041 
L 1100 4041 
L 1100 2403 
z
" transform="scale(0.015625)"/>
        <path id="ArialMT-4f" d="M 309 2231 
Q 309 3372 921 4017 
Q 1534 4663 2503 4663 
Q 3138 4663 3647 4359 
Q 4156 4056 4423 3514 
Q 4691 2972 4691 2284 
Q 4691 1588 4409 1038 
Q 4128 488 3612 205 
Q 3097 -78 2500 -78 
Q 1853 -78 1343 234 
Q 834 547 571 1087 
Q 309 1628 309 2231 
z
M 934 2222 
Q 934 1394 1379 917 
Q 1825 441 2497 441 
Q 3181 441 3623 922 
Q 4066 1403 4066 2288 
Q 4066 2847 3877 3264 
Q 3688 3681 3323 3911 
Q 2959 4141 2506 4141 
Q 1863 4141 1398 3698 
Q 934 3256 934 2222 
z
" transform="scale(0.015625)"/>
       </defs>
       <use xlink:href="#ArialMT-41"/>
       <use xlink:href="#ArialMT-50" x="66.699219"/>
       <use xlink:href="#ArialMT-4f" x="133.398438"/>
       <use xlink:href="#ArialMT-44" x="211.181641"/>
      </g>
     </g>
    </g>
    <g id="ytick_3">
     <g id="text_9">
      <!-- NT5E -->
      <g transform="translate(25.975625 511.249228)scale(0.08 -0.08)">
       <defs>
        <path id="ArialMT-4e" d="M 488 0 
L 488 4581 
L 1109 4581 
L 3516 984 
L 3516 4581 
L 4097 4581 
L 4097 0 
L 3475 0 
L 1069 3600 
L 1069 0 
L 488 0 
z
" transform="scale(0.015625)"/>
        <path id="ArialMT-54" d="M 1659 0 
L 1659 4041 
L 150 4041 
L 150 4581 
L 3781 4581 
L 3781 4041 
L 2266 4041 
L 2266 0 
L 1659 0 
z
" transform="scale(0.015625)"/>
        <path id="ArialMT-35" d="M 266 1200 
L 856 1250 
Q 922 819 1161 601 
Q 1400 384 1738 384 
Q 2144 384 2425 690 
Q 2706 997 2706 1503 
Q 2706 1984 2436 2262 
Q 2166 2541 1728 2541 
Q 1456 2541 1237 2417 
Q 1019 2294 894 2097 
L 366 2166 
L 809 4519 
L 3088 4519 
L 3088 3981 
L 1259 3981 
L 1013 2750 
Q 1425 3038 1878 3038 
Q 2478 3038 2890 2622 
Q 3303 2206 3303 1553 
Q 3303 931 2941 478 
Q 2500 -78 1738 -78 
Q 1113 -78 717 272 
Q 322 622 266 1200 
z
" transform="scale(0.015625)"/>
        <path id="ArialMT-45" d="M 506 0 
L 506 4581 
L 3819 4581 
L 3819 4041 
L 1113 4041 
L 1113 2638 
L 3647 2638 
L 3647 2100 
L 1113 2100 
L 1113 541 
L 3925 541 
L 3925 0 
L 506 0 
z
" transform="scale(0.015625)"/>
       </defs>
       <use xlink:href="#ArialMT-4e"/>
       <use xlink:href="#ArialMT-54" x="72.216797"/>
       <use xlink:href="#ArialMT-35" x="133.300781"/>
       <use xlink:href="#ArialMT-45" x="188.916016"/>
      </g>
     </g>
    </g>
    <g id="ytick_4">
     <g id="text_10">
      <!-- ANTXR2 -->
      <g transform="translate(20.41875 505.222225)scale(0.08 -0.08)">
       <defs>
        <path id="ArialMT-58" d="M 28 0 
L 1800 2388 
L 238 4581 
L 959 4581 
L 1791 3406 
Q 2050 3041 2159 2844 
Q 2313 3094 2522 3366 
L 3444 4581 
L 4103 4581 
L 2494 2422 
L 4228 0 
L 3478 0 
L 2325 1634 
Q 2228 1775 2125 1941 
Q 1972 1691 1906 1597 
L 756 0 
L 28 0 
z
" transform="scale(0.015625)"/>
        <path id="ArialMT-52" d="M 503 0 
L 503 4581 
L 2534 4581 
Q 3147 4581 3465 4457 
Q 3784 4334 3975 4021 
Q 4166 3709 4166 3331 
Q 4166 2844 3850 2509 
Q 3534 2175 2875 2084 
Q 3116 1969 3241 1856 
Q 3506 1613 3744 1247 
L 4541 0 
L 3778 0 
L 3172 953 
Q 2906 1366 2734 1584 
Q 2563 1803 2427 1890 
Q 2291 1978 2150 2013 
Q 2047 2034 1813 2034 
L 1109 2034 
L 1109 0 
L 503 0 
z
M 1109 2559 
L 2413 2559 
Q 2828 2559 3062 2645 
Q 3297 2731 3419 2920 
Q 3541 3109 3541 3331 
Q 3541 3656 3305 3865 
Q 3069 4075 2559 4075 
L 1109 4075 
L 1109 2559 
z
" transform="scale(0.015625)"/>
       </defs>
       <use xlink:href="#ArialMT-41"/>
       <use xlink:href="#ArialMT-4e" x="66.699219"/>
       <use xlink:href="#ArialMT-54" x="138.916016"/>
       <use xlink:href="#ArialMT-58" x="200"/>
       <use xlink:href="#ArialMT-52" x="266.699219"/>
       <use xlink:href="#ArialMT-32" x="338.916016"/>
      </g>
     </g>
    </g>
    <g id="ytick_5">
     <g id="text_11">
      <!-- TTR -->
      <g transform="translate(28.425 499.195222)scale(0.08 -0.08)">
       <use xlink:href="#ArialMT-54"/>
       <use xlink:href="#ArialMT-54" x="61.083984"/>
       <use xlink:href="#ArialMT-52" x="122.167969"/>
      </g>
     </g>
    </g>
    <g id="ytick_6">
     <g id="text_12">
      <!-- ANO6 -->
      <g transform="translate(25.3075 493.16822)scale(0.08 -0.08)">
       <defs>
        <path id="ArialMT-36" d="M 3184 3459 
L 2625 3416 
Q 2550 3747 2413 3897 
Q 2184 4138 1850 4138 
Q 1581 4138 1378 3988 
Q 1113 3794 959 3422 
Q 806 3050 800 2363 
Q 1003 2672 1297 2822 
Q 1591 2972 1913 2972 
Q 2475 2972 2870 2558 
Q 3266 2144 3266 1488 
Q 3266 1056 3080 686 
Q 2894 316 2569 119 
Q 2244 -78 1831 -78 
Q 1128 -78 684 439 
Q 241 956 241 2144 
Q 241 3472 731 4075 
Q 1159 4600 1884 4600 
Q 2425 4600 2770 4297 
Q 3116 3994 3184 3459 
z
M 888 1484 
Q 888 1194 1011 928 
Q 1134 663 1356 523 
Q 1578 384 1822 384 
Q 2178 384 2434 671 
Q 2691 959 2691 1453 
Q 2691 1928 2437 2201 
Q 2184 2475 1800 2475 
Q 1419 2475 1153 2201 
Q 888 1928 888 1484 
z
" transform="scale(0.015625)"/>
       </defs>
       <use xlink:href="#ArialMT-41"/>
       <use xlink:href="#ArialMT-4e" x="66.699219"/>
       <use xlink:href="#ArialMT-4f" x="138.916016"/>
       <use xlink:href="#ArialMT-36" x="216.699219"/>
      </g>
     </g>
    </g>
    <g id="ytick_7">
     <g id="text_13">
      <!-- ALB -->
      <g transform="translate(28.639375 487.141217)scale(0.08 -0.08)">
       <defs>
        <path id="ArialMT-4c" d="M 469 0 
L 469 4581 
L 1075 4581 
L 1075 541 
L 3331 541 
L 3331 0 
L 469 0 
z
" transform="scale(0.015625)"/>
        <path id="ArialMT-42" d="M 469 0 
L 469 4581 
L 2188 4581 
Q 2713 4581 3030 4442 
Q 3347 4303 3526 4014 
Q 3706 3725 3706 3409 
Q 3706 3116 3547 2856 
Q 3388 2597 3066 2438 
Q 3481 2316 3704 2022 
Q 3928 1728 3928 1328 
Q 3928 1006 3792 729 
Q 3656 453 3456 303 
Q 3256 153 2954 76 
Q 2653 0 2216 0 
L 469 0 
z
M 1075 2656 
L 2066 2656 
Q 2469 2656 2644 2709 
Q 2875 2778 2992 2937 
Q 3109 3097 3109 3338 
Q 3109 3566 3000 3739 
Q 2891 3913 2687 3977 
Q 2484 4041 1991 4041 
L 1075 4041 
L 1075 2656 
z
M 1075 541 
L 2216 541 
Q 2509 541 2628 563 
Q 2838 600 2978 687 
Q 3119 775 3209 942 
Q 3300 1109 3300 1328 
Q 3300 1584 3169 1773 
Q 3038 1963 2805 2039 
Q 2572 2116 2134 2116 
L 1075 2116 
L 1075 541 
z
" transform="scale(0.015625)"/>
       </defs>
       <use xlink:href="#ArialMT-41"/>
       <use xlink:href="#ArialMT-4c" x="66.699219"/>
       <use xlink:href="#ArialMT-42" x="122.314453"/>
      </g>
     </g>
    </g>
    <g id="ytick_8">
     <g id="text_14">
      <!-- SLC2A3 -->
      <g transform="translate(21.301875 481.114214)scale(0.08 -0.08)">
       <defs>
        <path id="ArialMT-53" d="M 288 1472 
L 859 1522 
Q 900 1178 1048 958 
Q 1197 738 1509 602 
Q 1822 466 2213 466 
Q 2559 466 2825 569 
Q 3091 672 3220 851 
Q 3350 1031 3350 1244 
Q 3350 1459 3225 1620 
Q 3100 1781 2813 1891 
Q 2628 1963 1997 2114 
Q 1366 2266 1113 2400 
Q 784 2572 623 2826 
Q 463 3081 463 3397 
Q 463 3744 659 4045 
Q 856 4347 1234 4503 
Q 1613 4659 2075 4659 
Q 2584 4659 2973 4495 
Q 3363 4331 3572 4012 
Q 3781 3694 3797 3291 
L 3216 3247 
Q 3169 3681 2898 3903 
Q 2628 4125 2100 4125 
Q 1550 4125 1298 3923 
Q 1047 3722 1047 3438 
Q 1047 3191 1225 3031 
Q 1400 2872 2139 2705 
Q 2878 2538 3153 2413 
Q 3553 2228 3743 1945 
Q 3934 1663 3934 1294 
Q 3934 928 3725 604 
Q 3516 281 3123 101 
Q 2731 -78 2241 -78 
Q 1619 -78 1198 103 
Q 778 284 539 648 
Q 300 1013 288 1472 
z
" transform="scale(0.015625)"/>
        <path id="ArialMT-33" d="M 269 1209 
L 831 1284 
Q 928 806 1161 595 
Q 1394 384 1728 384 
Q 2125 384 2398 659 
Q 2672 934 2672 1341 
Q 2672 1728 2419 1979 
Q 2166 2231 1775 2231 
Q 1616 2231 1378 2169 
L 1441 2663 
Q 1497 2656 1531 2656 
Q 1891 2656 2178 2843 
Q 2466 3031 2466 3422 
Q 2466 3731 2256 3934 
Q 2047 4138 1716 4138 
Q 1388 4138 1169 3931 
Q 950 3725 888 3313 
L 325 3413 
Q 428 3978 793 4289 
Q 1159 4600 1703 4600 
Q 2078 4600 2393 4439 
Q 2709 4278 2876 4000 
Q 3044 3722 3044 3409 
Q 3044 3113 2884 2869 
Q 2725 2625 2413 2481 
Q 2819 2388 3044 2092 
Q 3269 1797 3269 1353 
Q 3269 753 2831 336 
Q 2394 -81 1725 -81 
Q 1122 -81 723 278 
Q 325 638 269 1209 
z
" transform="scale(0.015625)"/>
       </defs>
       <use xlink:href="#ArialMT-53"/>
       <use xlink:href="#ArialMT-4c" x="66.699219"/>
       <use xlink:href="#ArialMT-43" x="122.314453"/>
       <use xlink:href="#ArialMT-32" x="194.53125"/>
       <use xlink:href="#ArialMT-41" x="250.146484"/>
       <use xlink:href="#ArialMT-33" x="316.845703"/>
      </g>
     </g>
    </g>
    <g id="ytick_9">
     <g id="text_15">
      <!-- C9orf5 -->
      <g transform="translate(24.195 475.087211)scale(0.08 -0.08)">
       <defs>
        <path id="ArialMT-39" d="M 350 1059 
L 891 1109 
Q 959 728 1153 556 
Q 1347 384 1650 384 
Q 1909 384 2104 503 
Q 2300 622 2425 820 
Q 2550 1019 2634 1356 
Q 2719 1694 2719 2044 
Q 2719 2081 2716 2156 
Q 2547 1888 2255 1720 
Q 1963 1553 1622 1553 
Q 1053 1553 659 1965 
Q 266 2378 266 3053 
Q 266 3750 677 4175 
Q 1088 4600 1706 4600 
Q 2153 4600 2523 4359 
Q 2894 4119 3086 3673 
Q 3278 3228 3278 2384 
Q 3278 1506 3087 986 
Q 2897 466 2520 194 
Q 2144 -78 1638 -78 
Q 1100 -78 759 220 
Q 419 519 350 1059 
z
M 2653 3081 
Q 2653 3566 2395 3850 
Q 2138 4134 1775 4134 
Q 1400 4134 1122 3828 
Q 844 3522 844 3034 
Q 844 2597 1108 2323 
Q 1372 2050 1759 2050 
Q 2150 2050 2401 2323 
Q 2653 2597 2653 3081 
z
" transform="scale(0.015625)"/>
        <path id="ArialMT-6f" d="M 213 1659 
Q 213 2581 725 3025 
Q 1153 3394 1769 3394 
Q 2453 3394 2887 2945 
Q 3322 2497 3322 1706 
Q 3322 1066 3130 698 
Q 2938 331 2570 128 
Q 2203 -75 1769 -75 
Q 1072 -75 642 372 
Q 213 819 213 1659 
z
M 791 1659 
Q 791 1022 1069 705 
Q 1347 388 1769 388 
Q 2188 388 2466 706 
Q 2744 1025 2744 1678 
Q 2744 2294 2464 2611 
Q 2184 2928 1769 2928 
Q 1347 2928 1069 2612 
Q 791 2297 791 1659 
z
" transform="scale(0.015625)"/>
        <path id="ArialMT-72" d="M 416 0 
L 416 3319 
L 922 3319 
L 922 2816 
Q 1116 3169 1280 3281 
Q 1444 3394 1641 3394 
Q 1925 3394 2219 3213 
L 2025 2691 
Q 1819 2813 1613 2813 
Q 1428 2813 1281 2702 
Q 1134 2591 1072 2394 
Q 978 2094 978 1738 
L 978 0 
L 416 0 
z
" transform="scale(0.015625)"/>
        <path id="ArialMT-66" d="M 556 0 
L 556 2881 
L 59 2881 
L 59 3319 
L 556 3319 
L 556 3672 
Q 556 4006 616 4169 
Q 697 4388 901 4523 
Q 1106 4659 1475 4659 
Q 1713 4659 2000 4603 
L 1916 4113 
Q 1741 4144 1584 4144 
Q 1328 4144 1222 4034 
Q 1116 3925 1116 3625 
L 1116 3319 
L 1763 3319 
L 1763 2881 
L 1116 2881 
L 1116 0 
L 556 0 
z
" transform="scale(0.015625)"/>
       </defs>
       <use xlink:href="#ArialMT-43"/>
       <use xlink:href="#ArialMT-39" x="72.216797"/>
       <use xlink:href="#ArialMT-6f" x="127.832031"/>
       <use xlink:href="#ArialMT-72" x="183.447266"/>
       <use xlink:href="#ArialMT-66" x="216.748047"/>
       <use xlink:href="#ArialMT-35" x="244.53125"/>
      </g>
     </g>
    </g>
    <g id="ytick_10">
     <g id="text_16">
      <!-- CNTNAP1 -->
      <g transform="translate(17.53 469.060209)scale(0.08 -0.08)">
       <defs>
        <path id="ArialMT-31" d="M 2384 0 
L 1822 0 
L 1822 3584 
Q 1619 3391 1289 3197 
Q 959 3003 697 2906 
L 697 3450 
Q 1169 3672 1522 3987 
Q 1875 4303 2022 4600 
L 2384 4600 
L 2384 0 
z
" transform="scale(0.015625)"/>
       </defs>
       <use xlink:href="#ArialMT-43"/>
       <use xlink:href="#ArialMT-4e" x="72.216797"/>
       <use xlink:href="#ArialMT-54" x="144.433594"/>
       <use xlink:href="#ArialMT-4e" x="205.517578"/>
       <use xlink:href="#ArialMT-41" x="277.734375"/>
       <use xlink:href="#ArialMT-50" x="344.433594"/>
       <use xlink:href="#ArialMT-31" x="411.132812"/>
      </g>
     </g>
    </g>
    <g id="ytick_11">
     <g id="text_17">
      <!-- VTN -->
      <g transform="translate(28.2 463.033206)scale(0.08 -0.08)">
       <defs>
        <path id="ArialMT-56" d="M 1803 0 
L 28 4581 
L 684 4581 
L 1875 1253 
Q 2019 853 2116 503 
Q 2222 878 2363 1253 
L 3600 4581 
L 4219 4581 
L 2425 0 
L 1803 0 
z
" transform="scale(0.015625)"/>
       </defs>
       <use xlink:href="#ArialMT-56"/>
       <use xlink:href="#ArialMT-54" x="66.699219"/>
       <use xlink:href="#ArialMT-4e" x="127.783203"/>
      </g>
     </g>
    </g>
    <g id="ytick_12">
     <g id="text_18">
      <!-- AFP -->
      <g transform="translate(28.420625 457.006203)scale(0.08 -0.08)">
       <defs>
        <path id="ArialMT-46" d="M 525 0 
L 525 4581 
L 3616 4581 
L 3616 4041 
L 1131 4041 
L 1131 2622 
L 3281 2622 
L 3281 2081 
L 1131 2081 
L 1131 0 
L 525 0 
z
" transform="scale(0.015625)"/>
       </defs>
       <use xlink:href="#ArialMT-41"/>
       <use xlink:href="#ArialMT-46" x="66.699219"/>
       <use xlink:href="#ArialMT-50" x="127.783203"/>
      </g>
     </g>
    </g>
    <g id="ytick_13">
     <g id="text_19">
      <!-- LIMS1 -->
      <g transform="translate(24.64 450.979201)scale(0.08 -0.08)">
       <defs>
        <path id="ArialMT-49" d="M 597 0 
L 597 4581 
L 1203 4581 
L 1203 0 
L 597 0 
z
" transform="scale(0.015625)"/>
       </defs>
       <use xlink:href="#ArialMT-4c"/>
       <use xlink:href="#ArialMT-49" x="55.615234"/>
       <use xlink:href="#ArialMT-4d" x="83.398438"/>
       <use xlink:href="#ArialMT-53" x="166.699219"/>
       <use xlink:href="#ArialMT-31" x="233.398438"/>
      </g>
     </g>
    </g>
    <g id="ytick_14">
     <g id="text_20">
      <!-- SERPINE1 -->
      <g transform="translate(16.414375 444.952198)scale(0.08 -0.08)">
       <use xlink:href="#ArialMT-53"/>
       <use xlink:href="#ArialMT-45" x="66.699219"/>
       <use xlink:href="#ArialMT-52" x="133.398438"/>
       <use xlink:href="#ArialMT-50" x="205.615234"/>
       <use xlink:href="#ArialMT-49" x="272.314453"/>
       <use xlink:href="#ArialMT-4e" x="300.097656"/>
       <use xlink:href="#ArialMT-45" x="372.314453"/>
       <use xlink:href="#ArialMT-31" x="439.013672"/>
      </g>
     </g>
    </g>
    <g id="ytick_15">
     <g id="text_21">
      <!-- AHSG -->
      <g transform="translate(24.86375 438.925195)scale(0.08 -0.08)">
       <defs>
        <path id="ArialMT-48" d="M 513 0 
L 513 4581 
L 1119 4581 
L 1119 2700 
L 3500 2700 
L 3500 4581 
L 4106 4581 
L 4106 0 
L 3500 0 
L 3500 2159 
L 1119 2159 
L 1119 0 
L 513 0 
z
" transform="scale(0.015625)"/>
        <path id="ArialMT-47" d="M 2638 1797 
L 2638 2334 
L 4578 2338 
L 4578 638 
Q 4131 281 3656 101 
Q 3181 -78 2681 -78 
Q 2006 -78 1454 211 
Q 903 500 622 1047 
Q 341 1594 341 2269 
Q 341 2938 620 3517 
Q 900 4097 1425 4378 
Q 1950 4659 2634 4659 
Q 3131 4659 3532 4498 
Q 3934 4338 4162 4050 
Q 4391 3763 4509 3300 
L 3963 3150 
Q 3859 3500 3706 3700 
Q 3553 3900 3268 4020 
Q 2984 4141 2638 4141 
Q 2222 4141 1919 4014 
Q 1616 3888 1430 3681 
Q 1244 3475 1141 3228 
Q 966 2803 966 2306 
Q 966 1694 1177 1281 
Q 1388 869 1791 669 
Q 2194 469 2647 469 
Q 3041 469 3416 620 
Q 3791 772 3984 944 
L 3984 1797 
L 2638 1797 
z
" transform="scale(0.015625)"/>
       </defs>
       <use xlink:href="#ArialMT-41"/>
       <use xlink:href="#ArialMT-48" x="66.699219"/>
       <use xlink:href="#ArialMT-53" x="138.916016"/>
       <use xlink:href="#ArialMT-47" x="205.615234"/>
      </g>
     </g>
    </g>
    <g id="ytick_16">
     <g id="text_22">
      <!-- F2 -->
      <g transform="translate(31.5325 432.898193)scale(0.08 -0.08)">
       <use xlink:href="#ArialMT-46"/>
       <use xlink:href="#ArialMT-32" x="61.083984"/>
      </g>
     </g>
    </g>
    <g id="ytick_17">
     <g id="text_23">
      <!-- KNG1 -->
      <g transform="translate(25.3075 426.87119)scale(0.08 -0.08)">
       <defs>
        <path id="ArialMT-4b" d="M 469 0 
L 469 4581 
L 1075 4581 
L 1075 2309 
L 3350 4581 
L 4172 4581 
L 2250 2725 
L 4256 0 
L 3456 0 
L 1825 2319 
L 1075 1588 
L 1075 0 
L 469 0 
z
" transform="scale(0.015625)"/>
       </defs>
       <use xlink:href="#ArialMT-4b"/>
       <use xlink:href="#ArialMT-4e" x="66.699219"/>
       <use xlink:href="#ArialMT-47" x="138.916016"/>
       <use xlink:href="#ArialMT-31" x="216.699219"/>
      </g>
     </g>
    </g>
    <g id="ytick_18">
     <g id="text_24">
      <!-- GLT8D3 -->
      <g transform="translate(21.37875 420.844187)scale(0.08 -0.08)">
       <use xlink:href="#ArialMT-47"/>
       <use xlink:href="#ArialMT-4c" x="77.783203"/>
       <use xlink:href="#ArialMT-54" x="126.023438"/>
       <use xlink:href="#ArialMT-38" x="187.107422"/>
       <use xlink:href="#ArialMT-44" x="242.722656"/>
       <use xlink:href="#ArialMT-33" x="314.939453"/>
      </g>
     </g>
    </g>
    <g id="ytick_19">
     <g id="text_25">
      <!-- AMBP -->
      <g transform="translate(24.86375 414.817184)scale(0.08 -0.08)">
       <use xlink:href="#ArialMT-41"/>
       <use xlink:href="#ArialMT-4d" x="66.699219"/>
       <use xlink:href="#ArialMT-42" x="150"/>
       <use xlink:href="#ArialMT-50" x="216.699219"/>
      </g>
     </g>
    </g>
    <g id="ytick_20">
     <g id="text_26">
      <!-- TDG -->
      <g transform="translate(27.756875 408.790182)scale(0.08 -0.08)">
       <use xlink:href="#ArialMT-54"/>
       <use xlink:href="#ArialMT-44" x="61.083984"/>
       <use xlink:href="#ArialMT-47" x="133.300781"/>
      </g>
     </g>
    </g>
    <g id="ytick_21">
     <g id="text_27">
      <!-- ANKFY1 -->
      <g transform="translate(20.639375 402.763179)scale(0.08 -0.08)">
       <defs>
        <path id="ArialMT-59" d="M 1784 0 
L 1784 1941 
L 19 4581 
L 756 4581 
L 1659 3200 
Q 1909 2813 2125 2425 
Q 2331 2784 2625 3234 
L 3513 4581 
L 4219 4581 
L 2391 1941 
L 2391 0 
L 1784 0 
z
" transform="scale(0.015625)"/>
       </defs>
       <use xlink:href="#ArialMT-41"/>
       <use xlink:href="#ArialMT-4e" x="66.699219"/>
       <use xlink:href="#ArialMT-4b" x="138.916016"/>
       <use xlink:href="#ArialMT-46" x="205.615234"/>
       <use xlink:href="#ArialMT-59" x="266.699219"/>
       <use xlink:href="#ArialMT-31" x="333.398438"/>
      </g>
     </g>
    </g>
    <g id="ytick_22">
     <g id="text_28">
      <!-- GPX3 -->
      <g transform="translate(25.528125 396.736176)scale(0.08 -0.08)">
       <use xlink:href="#ArialMT-47"/>
       <use xlink:href="#ArialMT-50" x="77.783203"/>
       <use xlink:href="#ArialMT-58" x="144.482422"/>
       <use xlink:href="#ArialMT-33" x="211.181641"/>
      </g>
     </g>
    </g>
    <g id="ytick_23">
     <g id="text_29">
      <!-- F5 -->
      <g transform="translate(31.5325 390.709174)scale(0.08 -0.08)">
       <use xlink:href="#ArialMT-46"/>
       <use xlink:href="#ArialMT-35" x="61.083984"/>
      </g>
     </g>
    </g>
    <g id="ytick_24">
     <g id="text_30">
      <!-- APOH -->
      <g transform="translate(24.86375 384.682171)scale(0.08 -0.08)">
       <use xlink:href="#ArialMT-41"/>
       <use xlink:href="#ArialMT-50" x="66.699219"/>
       <use xlink:href="#ArialMT-4f" x="133.398438"/>
       <use xlink:href="#ArialMT-48" x="211.181641"/>
      </g>
     </g>
    </g>
    <g id="ytick_25">
     <g id="text_31">
      <!-- HMGA2 -->
      <g transform="translate(21.975625 378.655168)scale(0.08 -0.08)">
       <use xlink:href="#ArialMT-48"/>
       <use xlink:href="#ArialMT-4d" x="72.216797"/>
       <use xlink:href="#ArialMT-47" x="155.517578"/>
       <use xlink:href="#ArialMT-41" x="233.300781"/>
       <use xlink:href="#ArialMT-32" x="300"/>
      </g>
     </g>
    </g>
    <g id="ytick_26">
     <g id="text_32">
      <!-- GPCPD1 -->
      <g transform="translate(19.750625 372.628166)scale(0.08 -0.08)">
       <use xlink:href="#ArialMT-47"/>
       <use xlink:href="#ArialMT-50" x="77.783203"/>
       <use xlink:href="#ArialMT-43" x="144.482422"/>
       <use xlink:href="#ArialMT-50" x="216.699219"/>
       <use xlink:href="#ArialMT-44" x="283.398438"/>
       <use xlink:href="#ArialMT-31" x="355.615234"/>
      </g>
     </g>
    </g>
    <g id="ytick_27">
     <g id="text_33">
      <!-- HGF -->
      <g transform="translate(27.756875 366.601163)scale(0.08 -0.08)">
       <use xlink:href="#ArialMT-48"/>
       <use xlink:href="#ArialMT-47" x="72.216797"/>
       <use xlink:href="#ArialMT-46" x="150"/>
      </g>
     </g>
    </g>
    <g id="ytick_28">
     <g id="text_34">
      <!-- GLS -->
      <g transform="translate(28.19625 360.57416)scale(0.08 -0.08)">
       <use xlink:href="#ArialMT-47"/>
       <use xlink:href="#ArialMT-4c" x="77.783203"/>
       <use xlink:href="#ArialMT-53" x="133.398438"/>
      </g>
     </g>
    </g>
    <g id="ytick_29">
     <g id="text_35">
      <!-- WIPF1 -->
      <g transform="translate(23.9775 354.547157)scale(0.08 -0.08)">
       <defs>
        <path id="ArialMT-57" d="M 1294 0 
L 78 4581 
L 700 4581 
L 1397 1578 
Q 1509 1106 1591 641 
Q 1766 1375 1797 1488 
L 2669 4581 
L 3400 4581 
L 4056 2263 
Q 4303 1400 4413 641 
Q 4500 1075 4641 1638 
L 5359 4581 
L 5969 4581 
L 4713 0 
L 4128 0 
L 3163 3491 
Q 3041 3928 3019 4028 
Q 2947 3713 2884 3491 
L 1913 0 
L 1294 0 
z
" transform="scale(0.015625)"/>
       </defs>
       <use xlink:href="#ArialMT-57"/>
       <use xlink:href="#ArialMT-49" x="94.384766"/>
       <use xlink:href="#ArialMT-50" x="122.167969"/>
       <use xlink:href="#ArialMT-46" x="188.867188"/>
       <use xlink:href="#ArialMT-31" x="249.951172"/>
      </g>
     </g>
    </g>
    <g id="ytick_30">
     <g id="text_36">
      <!-- PKP2 -->
      <g transform="translate(25.97125 348.520155)scale(0.08 -0.08)">
       <use xlink:href="#ArialMT-50"/>
       <use xlink:href="#ArialMT-4b" x="66.699219"/>
       <use xlink:href="#ArialMT-50" x="133.398438"/>
       <use xlink:href="#ArialMT-32" x="200.097656"/>
      </g>
     </g>
    </g>
    <g id="ytick_31">
     <g id="text_37">
      <!-- F11R -->
      <g transform="translate(26.714375 342.493152)scale(0.08 -0.08)">
       <use xlink:href="#ArialMT-46"/>
       <use xlink:href="#ArialMT-31" x="61.083984"/>
       <use xlink:href="#ArialMT-31" x="109.324219"/>
       <use xlink:href="#ArialMT-52" x="164.939453"/>
      </g>
     </g>
    </g>
    <g id="ytick_32">
     <g id="text_38">
      <!-- SYK -->
      <g transform="translate(28.195625 336.466149)scale(0.08 -0.08)">
       <use xlink:href="#ArialMT-53"/>
       <use xlink:href="#ArialMT-59" x="66.699219"/>
       <use xlink:href="#ArialMT-4b" x="133.398438"/>
      </g>
     </g>
    </g>
    <g id="ytick_33">
     <g id="text_39">
      <!-- SDC1 -->
      <g transform="translate(25.53 330.439147)scale(0.08 -0.08)">
       <use xlink:href="#ArialMT-53"/>
       <use xlink:href="#ArialMT-44" x="66.699219"/>
       <use xlink:href="#ArialMT-43" x="138.916016"/>
       <use xlink:href="#ArialMT-31" x="211.132812"/>
      </g>
     </g>
    </g>
    <g id="ytick_34">
     <g id="text_40">
      <!-- SLC6A6 -->
      <g transform="translate(21.301875 324.412144)scale(0.08 -0.08)">
       <use xlink:href="#ArialMT-53"/>
       <use xlink:href="#ArialMT-4c" x="66.699219"/>
       <use xlink:href="#ArialMT-43" x="122.314453"/>
       <use xlink:href="#ArialMT-36" x="194.53125"/>
       <use xlink:href="#ArialMT-41" x="250.146484"/>
       <use xlink:href="#ArialMT-36" x="316.845703"/>
      </g>
     </g>
    </g>
    <g id="ytick_35">
     <g id="text_41">
      <!-- METTL9 -->
      <g transform="translate(20.865 318.385141)scale(0.08 -0.08)">
       <use xlink:href="#ArialMT-4d"/>
       <use xlink:href="#ArialMT-45" x="83.300781"/>
       <use xlink:href="#ArialMT-54" x="150"/>
       <use xlink:href="#ArialMT-54" x="211.083984"/>
       <use xlink:href="#ArialMT-4c" x="272.167969"/>
       <use xlink:href="#ArialMT-39" x="327.783203"/>
      </g>
     </g>
    </g>
    <g id="ytick_36">
     <g id="text_42">
      <!-- ZHX2 -->
      <g transform="translate(25.975625 312.358139)scale(0.08 -0.08)">
       <defs>
        <path id="ArialMT-5a" d="M 128 0 
L 128 563 
L 2475 3497 
Q 2725 3809 2950 4041 
L 394 4041 
L 394 4581 
L 3675 4581 
L 3675 4041 
L 1103 863 
L 825 541 
L 3750 541 
L 3750 0 
L 128 0 
z
" transform="scale(0.015625)"/>
       </defs>
       <use xlink:href="#ArialMT-5a"/>
       <use xlink:href="#ArialMT-48" x="61.083984"/>
       <use xlink:href="#ArialMT-58" x="133.300781"/>
       <use xlink:href="#ArialMT-32" x="200"/>
      </g>
     </g>
    </g>
    <g id="ytick_37">
     <g id="text_43">
      <!-- MEX3D -->
      <g transform="translate(22.41875 306.331136)scale(0.08 -0.08)">
       <use xlink:href="#ArialMT-4d"/>
       <use xlink:href="#ArialMT-45" x="83.300781"/>
       <use xlink:href="#ArialMT-58" x="150"/>
       <use xlink:href="#ArialMT-33" x="216.699219"/>
       <use xlink:href="#ArialMT-44" x="272.314453"/>
      </g>
     </g>
    </g>
    <g id="ytick_38">
     <g id="text_44">
      <!-- CDK2 -->
      <g transform="translate(25.53 300.304133)scale(0.08 -0.08)">
       <use xlink:href="#ArialMT-43"/>
       <use xlink:href="#ArialMT-44" x="72.216797"/>
       <use xlink:href="#ArialMT-4b" x="144.433594"/>
       <use xlink:href="#ArialMT-32" x="211.132812"/>
      </g>
     </g>
    </g>
    <g id="ytick_39">
     <g id="text_45">
      <!-- NAT11 -->
      <g transform="translate(24.34125 294.27713)scale(0.08 -0.08)">
       <use xlink:href="#ArialMT-4e"/>
       <use xlink:href="#ArialMT-41" x="72.216797"/>
       <use xlink:href="#ArialMT-54" x="131.541016"/>
       <use xlink:href="#ArialMT-31" x="192.625"/>
       <use xlink:href="#ArialMT-31" x="240.865234"/>
      </g>
     </g>
    </g>
    <g id="ytick_40">
     <g id="text_46">
      <!-- MARCKSL1 -->
      <g transform="translate(14.6375 288.250128)scale(0.08 -0.08)">
       <use xlink:href="#ArialMT-4d"/>
       <use xlink:href="#ArialMT-41" x="83.300781"/>
       <use xlink:href="#ArialMT-52" x="150"/>
       <use xlink:href="#ArialMT-43" x="222.216797"/>
       <use xlink:href="#ArialMT-4b" x="294.433594"/>
       <use xlink:href="#ArialMT-53" x="361.132812"/>
       <use xlink:href="#ArialMT-4c" x="427.832031"/>
       <use xlink:href="#ArialMT-31" x="483.447266"/>
      </g>
     </g>
    </g>
    <g id="ytick_41">
     <g id="text_47">
      <!-- CHML -->
      <g transform="translate(24.86625 282.223125)scale(0.08 -0.08)">
       <use xlink:href="#ArialMT-43"/>
       <use xlink:href="#ArialMT-48" x="72.216797"/>
       <use xlink:href="#ArialMT-4d" x="144.433594"/>
       <use xlink:href="#ArialMT-4c" x="227.734375"/>
      </g>
     </g>
    </g>
    <g id="ytick_42">
     <g id="text_48">
      <!-- UIMC1 -->
      <g transform="translate(23.755 276.196122)scale(0.08 -0.08)">
       <defs>
        <path id="ArialMT-55" d="M 3500 4581 
L 4106 4581 
L 4106 1934 
Q 4106 1244 3950 837 
Q 3794 431 3386 176 
Q 2978 -78 2316 -78 
Q 1672 -78 1262 144 
Q 853 366 678 786 
Q 503 1206 503 1934 
L 503 4581 
L 1109 4581 
L 1109 1938 
Q 1109 1341 1220 1058 
Q 1331 775 1601 622 
Q 1872 469 2263 469 
Q 2931 469 3215 772 
Q 3500 1075 3500 1938 
L 3500 4581 
z
" transform="scale(0.015625)"/>
       </defs>
       <use xlink:href="#ArialMT-55"/>
       <use xlink:href="#ArialMT-49" x="72.216797"/>
       <use xlink:href="#ArialMT-4d" x="100"/>
       <use xlink:href="#ArialMT-43" x="183.300781"/>
       <use xlink:href="#ArialMT-31" x="255.517578"/>
      </g>
     </g>
    </g>
    <g id="ytick_43">
     <g id="text_49">
      <!-- MDC1 -->
      <g transform="translate(24.86625 270.16912)scale(0.08 -0.08)">
       <use xlink:href="#ArialMT-4d"/>
       <use xlink:href="#ArialMT-44" x="83.300781"/>
       <use xlink:href="#ArialMT-43" x="155.517578"/>
       <use xlink:href="#ArialMT-31" x="227.734375"/>
      </g>
     </g>
    </g>
    <g id="ytick_44">
     <g id="text_50">
      <!-- NUCKS1 -->
      <g transform="translate(19.973125 264.142117)scale(0.08 -0.08)">
       <use xlink:href="#ArialMT-4e"/>
       <use xlink:href="#ArialMT-55" x="72.216797"/>
       <use xlink:href="#ArialMT-43" x="144.433594"/>
       <use xlink:href="#ArialMT-4b" x="216.650391"/>
       <use xlink:href="#ArialMT-53" x="283.349609"/>
       <use xlink:href="#ArialMT-31" x="350.048828"/>
      </g>
     </g>
    </g>
    <g id="ytick_45">
     <g id="text_51">
      <!-- FOXO3 -->
      <g transform="translate(22.641875 258.115114)scale(0.08 -0.08)">
       <use xlink:href="#ArialMT-46"/>
       <use xlink:href="#ArialMT-4f" x="61.083984"/>
       <use xlink:href="#ArialMT-58" x="138.867188"/>
       <use xlink:href="#ArialMT-4f" x="205.566406"/>
       <use xlink:href="#ArialMT-33" x="283.349609"/>
      </g>
     </g>
    </g>
    <g id="ytick_46">
     <g id="text_52">
      <!-- GAS2L3 -->
      <g transform="translate(21.079375 252.088111)scale(0.08 -0.08)">
       <use xlink:href="#ArialMT-47"/>
       <use xlink:href="#ArialMT-41" x="77.783203"/>
       <use xlink:href="#ArialMT-53" x="144.482422"/>
       <use xlink:href="#ArialMT-32" x="211.181641"/>
       <use xlink:href="#ArialMT-4c" x="266.796875"/>
       <use xlink:href="#ArialMT-33" x="322.412109"/>
      </g>
     </g>
    </g>
    <g id="ytick_47">
     <g id="text_53">
      <!-- TOP2A -->
      <g transform="translate(23.155 246.061109)scale(0.08 -0.08)">
       <use xlink:href="#ArialMT-54"/>
       <use xlink:href="#ArialMT-4f" x="59.333984"/>
       <use xlink:href="#ArialMT-50" x="137.117188"/>
       <use xlink:href="#ArialMT-32" x="203.816406"/>
       <use xlink:href="#ArialMT-41" x="259.431641"/>
      </g>
     </g>
    </g>
    <g id="ytick_48">
     <g id="text_54">
      <!-- MBD3 -->
      <g transform="translate(25.086875 240.034106)scale(0.08 -0.08)">
       <use xlink:href="#ArialMT-4d"/>
       <use xlink:href="#ArialMT-42" x="83.300781"/>
       <use xlink:href="#ArialMT-44" x="150"/>
       <use xlink:href="#ArialMT-33" x="222.216797"/>
      </g>
     </g>
    </g>
    <g id="ytick_49">
     <g id="text_55">
      <!-- HLTF -->
      <g transform="translate(26.495625 234.007103)scale(0.08 -0.08)">
       <use xlink:href="#ArialMT-48"/>
       <use xlink:href="#ArialMT-4c" x="72.216797"/>
       <use xlink:href="#ArialMT-54" x="120.457031"/>
       <use xlink:href="#ArialMT-46" x="181.541016"/>
      </g>
     </g>
    </g>
    <g id="ytick_50">
     <g id="text_56">
      <!-- KIAA1143 -->
      <g transform="translate(18.481875 227.980101)scale(0.08 -0.08)">
       <use xlink:href="#ArialMT-4b"/>
       <use xlink:href="#ArialMT-49" x="66.699219"/>
       <use xlink:href="#ArialMT-41" x="94.482422"/>
       <use xlink:href="#ArialMT-41" x="161.181641"/>
       <use xlink:href="#ArialMT-31" x="227.880859"/>
       <use xlink:href="#ArialMT-31" x="276.121094"/>
       <use xlink:href="#ArialMT-34" x="331.736328"/>
       <use xlink:href="#ArialMT-33" x="387.351562"/>
      </g>
     </g>
    </g>
    <g id="ytick_51">
     <g id="text_57">
      <!-- KCTD12 -->
      <g transform="translate(20.8625 221.953098)scale(0.08 -0.08)">
       <use xlink:href="#ArialMT-4b"/>
       <use xlink:href="#ArialMT-43" x="66.699219"/>
       <use xlink:href="#ArialMT-54" x="138.916016"/>
       <use xlink:href="#ArialMT-44" x="200"/>
       <use xlink:href="#ArialMT-31" x="272.216797"/>
       <use xlink:href="#ArialMT-32" x="327.832031"/>
      </g>
     </g>
    </g>
    <g id="ytick_52">
     <g id="text_58">
      <!-- HAVCR1 -->
      <g transform="translate(20.268125 215.926095)scale(0.08 -0.08)">
       <use xlink:href="#ArialMT-48"/>
       <use xlink:href="#ArialMT-41" x="72.216797"/>
       <use xlink:href="#ArialMT-56" x="131.541016"/>
       <use xlink:href="#ArialMT-43" x="198.240234"/>
       <use xlink:href="#ArialMT-52" x="270.457031"/>
       <use xlink:href="#ArialMT-31" x="342.673828"/>
      </g>
     </g>
    </g>
    <g id="ytick_53">
     <g id="text_59">
      <!-- MCM5 -->
      <g transform="translate(24.423125 209.899093)scale(0.08 -0.08)">
       <use xlink:href="#ArialMT-4d"/>
       <use xlink:href="#ArialMT-43" x="83.300781"/>
       <use xlink:href="#ArialMT-4d" x="155.517578"/>
       <use xlink:href="#ArialMT-35" x="238.818359"/>
      </g>
     </g>
    </g>
    <g id="ytick_54">
     <g id="text_60">
      <!-- FANCD2 -->
      <g transform="translate(20.418125 203.87209)scale(0.08 -0.08)">
       <use xlink:href="#ArialMT-46"/>
       <use xlink:href="#ArialMT-41" x="55.583984"/>
       <use xlink:href="#ArialMT-4e" x="122.283203"/>
       <use xlink:href="#ArialMT-43" x="194.5"/>
       <use xlink:href="#ArialMT-44" x="266.716797"/>
       <use xlink:href="#ArialMT-32" x="338.933594"/>
      </g>
     </g>
    </g>
    <g id="ytick_55">
     <g id="text_61">
      <!-- HIST2H2AB -->
      <g transform="translate(14.415 197.845087)scale(0.08 -0.08)">
       <use xlink:href="#ArialMT-48"/>
       <use xlink:href="#ArialMT-49" x="72.216797"/>
       <use xlink:href="#ArialMT-53" x="100"/>
       <use xlink:href="#ArialMT-54" x="166.699219"/>
       <use xlink:href="#ArialMT-32" x="227.783203"/>
       <use xlink:href="#ArialMT-48" x="283.398438"/>
       <use xlink:href="#ArialMT-32" x="355.615234"/>
       <use xlink:href="#ArialMT-41" x="411.230469"/>
       <use xlink:href="#ArialMT-42" x="477.929688"/>
      </g>
     </g>
    </g>
    <g id="ytick_56">
     <g id="text_62">
      <!-- CTHRC1 -->
      <g transform="translate(19.9775 191.818084)scale(0.08 -0.08)">
       <use xlink:href="#ArialMT-43"/>
       <use xlink:href="#ArialMT-54" x="72.216797"/>
       <use xlink:href="#ArialMT-48" x="133.300781"/>
       <use xlink:href="#ArialMT-52" x="205.517578"/>
       <use xlink:href="#ArialMT-43" x="277.734375"/>
       <use xlink:href="#ArialMT-31" x="349.951172"/>
      </g>
     </g>
    </g>
    <g id="ytick_57">
     <g id="text_63">
      <!-- MCM2 -->
      <g transform="translate(24.423125 185.791082)scale(0.08 -0.08)">
       <use xlink:href="#ArialMT-4d"/>
       <use xlink:href="#ArialMT-43" x="83.300781"/>
       <use xlink:href="#ArialMT-4d" x="155.517578"/>
       <use xlink:href="#ArialMT-32" x="238.818359"/>
      </g>
     </g>
    </g>
    <g id="ytick_58">
     <g id="text_64">
      <!-- DUT -->
      <g transform="translate(27.979375 179.764079)scale(0.08 -0.08)">
       <use xlink:href="#ArialMT-44"/>
       <use xlink:href="#ArialMT-55" x="72.216797"/>
       <use xlink:href="#ArialMT-54" x="144.433594"/>
      </g>
     </g>
    </g>
    <g id="ytick_59">
     <g id="text_65">
      <!-- MSL1 -->
      <g transform="translate(25.75125 173.737076)scale(0.08 -0.08)">
       <use xlink:href="#ArialMT-4d"/>
       <use xlink:href="#ArialMT-53" x="83.300781"/>
       <use xlink:href="#ArialMT-4c" x="150"/>
       <use xlink:href="#ArialMT-31" x="205.615234"/>
      </g>
     </g>
    </g>
    <g id="ytick_60">
     <g id="text_66">
      <!-- FANCI -->
      <g transform="translate(24.42 167.710074)scale(0.08 -0.08)">
       <use xlink:href="#ArialMT-46"/>
       <use xlink:href="#ArialMT-41" x="55.583984"/>
       <use xlink:href="#ArialMT-4e" x="122.283203"/>
       <use xlink:href="#ArialMT-43" x="194.5"/>
       <use xlink:href="#ArialMT-49" x="266.716797"/>
      </g>
     </g>
    </g>
    <g id="ytick_61">
     <g id="text_67">
      <!-- KMO -->
      <g transform="translate(27.08875 161.683071)scale(0.08 -0.08)">
       <use xlink:href="#ArialMT-4b"/>
       <use xlink:href="#ArialMT-4d" x="66.699219"/>
       <use xlink:href="#ArialMT-4f" x="150"/>
      </g>
     </g>
    </g>
    <g id="ytick_62">
     <g id="text_68">
      <!-- WDHD1 -->
      <g transform="translate(21.53375 155.656068)scale(0.08 -0.08)">
       <use xlink:href="#ArialMT-57"/>
       <use xlink:href="#ArialMT-44" x="94.384766"/>
       <use xlink:href="#ArialMT-48" x="166.601562"/>
       <use xlink:href="#ArialMT-44" x="238.818359"/>
       <use xlink:href="#ArialMT-31" x="311.035156"/>
      </g>
     </g>
    </g>
    <g id="ytick_63">
     <g id="text_69">
      <!-- GINS4 -->
      <g transform="translate(24.19625 149.629066)scale(0.08 -0.08)">
       <use xlink:href="#ArialMT-47"/>
       <use xlink:href="#ArialMT-49" x="77.783203"/>
       <use xlink:href="#ArialMT-4e" x="105.566406"/>
       <use xlink:href="#ArialMT-53" x="177.783203"/>
       <use xlink:href="#ArialMT-34" x="244.482422"/>
      </g>
     </g>
    </g>
    <g id="ytick_64">
     <g id="text_70">
      <!-- MCM7 -->
      <g transform="translate(24.423125 143.602063)scale(0.08 -0.08)">
       <defs>
        <path id="ArialMT-37" d="M 303 3981 
L 303 4522 
L 3269 4522 
L 3269 4084 
Q 2831 3619 2401 2847 
Q 1972 2075 1738 1259 
Q 1569 684 1522 0 
L 944 0 
Q 953 541 1156 1306 
Q 1359 2072 1739 2783 
Q 2119 3494 2547 3981 
L 303 3981 
z
" transform="scale(0.015625)"/>
       </defs>
       <use xlink:href="#ArialMT-4d"/>
       <use xlink:href="#ArialMT-43" x="83.300781"/>
       <use xlink:href="#ArialMT-4d" x="155.517578"/>
       <use xlink:href="#ArialMT-37" x="238.818359"/>
      </g>
     </g>
    </g>
    <g id="ytick_65">
     <g id="text_71">
      <!-- DIAPH3 -->
      <g transform="translate(21.750625 137.57506)scale(0.08 -0.08)">
       <use xlink:href="#ArialMT-44"/>
       <use xlink:href="#ArialMT-49" x="72.216797"/>
       <use xlink:href="#ArialMT-41" x="100"/>
       <use xlink:href="#ArialMT-50" x="166.699219"/>
       <use xlink:href="#ArialMT-48" x="233.398438"/>
       <use xlink:href="#ArialMT-33" x="305.615234"/>
      </g>
     </g>
    </g>
    <g id="ytick_66">
     <g id="text_72">
      <!-- MCM4 -->
      <g transform="translate(24.423125 131.548057)scale(0.08 -0.08)">
       <use xlink:href="#ArialMT-4d"/>
       <use xlink:href="#ArialMT-43" x="83.300781"/>
       <use xlink:href="#ArialMT-4d" x="155.517578"/>
       <use xlink:href="#ArialMT-34" x="238.818359"/>
      </g>
     </g>
    </g>
    <g id="ytick_67">
     <g id="text_73">
      <!-- MCM6 -->
      <g transform="translate(24.423125 125.521055)scale(0.08 -0.08)">
       <use xlink:href="#ArialMT-4d"/>
       <use xlink:href="#ArialMT-43" x="83.300781"/>
       <use xlink:href="#ArialMT-4d" x="155.517578"/>
       <use xlink:href="#ArialMT-36" x="238.818359"/>
      </g>
     </g>
    </g>
    <g id="ytick_68">
     <g id="text_74">
      <!-- MCM3 -->
      <g transform="translate(24.423125 119.494052)scale(0.08 -0.08)">
       <use xlink:href="#ArialMT-4d"/>
       <use xlink:href="#ArialMT-43" x="83.300781"/>
       <use xlink:href="#ArialMT-4d" x="155.517578"/>
       <use xlink:href="#ArialMT-33" x="238.818359"/>
      </g>
     </g>
    </g>
    <g id="ytick_69">
     <g id="text_75">
      <!-- C9orf140 -->
      <g transform="translate(19.74625 113.467049)scale(0.08 -0.08)">
       <use xlink:href="#ArialMT-43"/>
       <use xlink:href="#ArialMT-39" x="72.216797"/>
       <use xlink:href="#ArialMT-6f" x="127.832031"/>
       <use xlink:href="#ArialMT-72" x="183.447266"/>
       <use xlink:href="#ArialMT-66" x="216.748047"/>
       <use xlink:href="#ArialMT-31" x="244.53125"/>
       <use xlink:href="#ArialMT-34" x="300.146484"/>
       <use xlink:href="#ArialMT-30" x="355.761719"/>
      </g>
     </g>
    </g>
    <g id="ytick_70">
     <g id="text_76">
      <!-- C1orf116 -->
      <g transform="translate(20.04125 107.440047)scale(0.08 -0.08)">
       <use xlink:href="#ArialMT-43"/>
       <use xlink:href="#ArialMT-31" x="72.216797"/>
       <use xlink:href="#ArialMT-6f" x="127.832031"/>
       <use xlink:href="#ArialMT-72" x="183.447266"/>
       <use xlink:href="#ArialMT-66" x="216.748047"/>
       <use xlink:href="#ArialMT-31" x="244.53125"/>
       <use xlink:href="#ArialMT-31" x="292.771484"/>
       <use xlink:href="#ArialMT-36" x="348.386719"/>
      </g>
     </g>
    </g>
    <g id="ytick_71">
     <g id="text_77">
      <!-- MTUS1 -->
      <g transform="translate(22.64375 101.413044)scale(0.08 -0.08)">
       <use xlink:href="#ArialMT-4d"/>
       <use xlink:href="#ArialMT-54" x="83.300781"/>
       <use xlink:href="#ArialMT-55" x="144.384766"/>
       <use xlink:href="#ArialMT-53" x="216.601562"/>
       <use xlink:href="#ArialMT-31" x="283.300781"/>
      </g>
     </g>
    </g>
    <g id="ytick_72">
     <g id="text_78">
      <!-- GINS3 -->
      <g transform="translate(24.19625 95.386041)scale(0.08 -0.08)">
       <use xlink:href="#ArialMT-47"/>
       <use xlink:href="#ArialMT-49" x="77.783203"/>
       <use xlink:href="#ArialMT-4e" x="105.566406"/>
       <use xlink:href="#ArialMT-53" x="177.783203"/>
       <use xlink:href="#ArialMT-33" x="244.482422"/>
      </g>
     </g>
    </g>
    <g id="ytick_73">
     <g id="text_79">
      <!-- COL6A3 -->
      <g transform="translate(20.85875 89.359039)scale(0.08 -0.08)">
       <use xlink:href="#ArialMT-43"/>
       <use xlink:href="#ArialMT-4f" x="72.216797"/>
       <use xlink:href="#ArialMT-4c" x="150"/>
       <use xlink:href="#ArialMT-36" x="205.615234"/>
       <use xlink:href="#ArialMT-41" x="261.230469"/>
       <use xlink:href="#ArialMT-33" x="327.929688"/>
      </g>
     </g>
    </g>
    <g id="ytick_74">
     <g id="text_80">
      <!-- AURKB -->
      <g transform="translate(22.418125 83.332036)scale(0.08 -0.08)">
       <use xlink:href="#ArialMT-41"/>
       <use xlink:href="#ArialMT-55" x="66.699219"/>
       <use xlink:href="#ArialMT-52" x="138.916016"/>
       <use xlink:href="#ArialMT-4b" x="211.132812"/>
       <use xlink:href="#ArialMT-42" x="277.832031"/>
      </g>
     </g>
    </g>
    <g id="ytick_75">
     <g id="text_81">
      <!-- TK1 -->
      <g transform="translate(28.864375 77.305033)scale(0.08 -0.08)">
       <use xlink:href="#ArialMT-54"/>
       <use xlink:href="#ArialMT-4b" x="61.083984"/>
       <use xlink:href="#ArialMT-31" x="127.783203"/>
      </g>
     </g>
    </g>
    <g id="ytick_76">
     <g id="text_82">
      <!-- UHRF1 -->
      <g transform="translate(22.86625 71.27803)scale(0.08 -0.08)">
       <use xlink:href="#ArialMT-55"/>
       <use xlink:href="#ArialMT-48" x="72.216797"/>
       <use xlink:href="#ArialMT-52" x="144.433594"/>
       <use xlink:href="#ArialMT-46" x="216.650391"/>
       <use xlink:href="#ArialMT-31" x="277.734375"/>
      </g>
     </g>
    </g>
    <g id="ytick_77">
     <g id="text_83">
      <!-- SCD -->
      <g transform="translate(27.754375 65.251028)scale(0.08 -0.08)">
       <use xlink:href="#ArialMT-53"/>
       <use xlink:href="#ArialMT-43" x="66.699219"/>
       <use xlink:href="#ArialMT-44" x="138.916016"/>
      </g>
     </g>
    </g>
    <g id="ytick_78">
     <g id="text_84">
      <!-- C6orf150 -->
      <g transform="translate(19.74625 59.224025)scale(0.08 -0.08)">
       <use xlink:href="#ArialMT-43"/>
       <use xlink:href="#ArialMT-36" x="72.216797"/>
       <use xlink:href="#ArialMT-6f" x="127.832031"/>
       <use xlink:href="#ArialMT-72" x="183.447266"/>
       <use xlink:href="#ArialMT-66" x="216.748047"/>
       <use xlink:href="#ArialMT-31" x="244.53125"/>
       <use xlink:href="#ArialMT-35" x="300.146484"/>
       <use xlink:href="#ArialMT-30" x="355.761719"/>
      </g>
     </g>
    </g>
    <g id="ytick_79">
     <g id="text_85">
      <!-- PRODH -->
      <g transform="translate(21.754375 53.197022)scale(0.08 -0.08)">
       <use xlink:href="#ArialMT-50"/>
       <use xlink:href="#ArialMT-52" x="66.699219"/>
       <use xlink:href="#ArialMT-4f" x="138.916016"/>
       <use xlink:href="#ArialMT-44" x="216.699219"/>
       <use xlink:href="#ArialMT-48" x="288.916016"/>
      </g>
     </g>
    </g>
    <g id="ytick_80">
     <g id="text_86">
      <!-- GPRIN1 -->
      <g transform="translate(21.3075 47.17002)scale(0.08 -0.08)">
       <use xlink:href="#ArialMT-47"/>
       <use xlink:href="#ArialMT-50" x="77.783203"/>
       <use xlink:href="#ArialMT-52" x="144.482422"/>
       <use xlink:href="#ArialMT-49" x="216.699219"/>
       <use xlink:href="#ArialMT-4e" x="244.482422"/>
       <use xlink:href="#ArialMT-31" x="316.699219"/>
      </g>
     </g>
    </g>
    <g id="ytick_81">
     <g id="text_87">
      <!-- ATAD2 -->
      <g transform="translate(23.8975 41.143017)scale(0.08 -0.08)">
       <use xlink:href="#ArialMT-41"/>
       <use xlink:href="#ArialMT-54" x="59.324219"/>
       <use xlink:href="#ArialMT-41" x="113.033203"/>
       <use xlink:href="#ArialMT-44" x="179.732422"/>
       <use xlink:href="#ArialMT-32" x="251.949219"/>
      </g>
     </g>
    </g>
    <g id="text_88">
     <!-- Protein -->
     <g transform="translate(10.335313 296.884219)rotate(-90)scale(0.1 -0.1)">
      <defs>
       <path id="DejaVuSans-50" d="M 1259 4147 
L 1259 2394 
L 2053 2394 
Q 2494 2394 2734 2622 
Q 2975 2850 2975 3272 
Q 2975 3691 2734 3919 
Q 2494 4147 2053 4147 
L 1259 4147 
z
M 628 4666 
L 2053 4666 
Q 2838 4666 3239 4311 
Q 3641 3956 3641 3272 
Q 3641 2581 3239 2228 
Q 2838 1875 2053 1875 
L 1259 1875 
L 1259 0 
L 628 0 
L 628 4666 
z
" transform="scale(0.015625)"/>
      </defs>
      <use xlink:href="#DejaVuSans-50"/>
      <use xlink:href="#DejaVuSans-72" x="58.552734"/>
      <use xlink:href="#DejaVuSans-6f" x="97.416016"/>
      <use xlink:href="#DejaVuSans-74" x="158.597656"/>
      <use xlink:href="#DejaVuSans-65" x="197.806641"/>
      <use xlink:href="#DejaVuSans-69" x="259.330078"/>
      <use xlink:href="#DejaVuSans-6e" x="287.113281"/>
     </g>
    </g>
   </g>
   <g id="patch_84">
    <path d="M 43.2 547.2 
L 43.2 11.52 
" style="fill: none"/>
   </g>
   <g id="patch_85">
    <path d="M 43.2 547.2 
L 211.68 547.2 
" style="fill: none; stroke: #000000; stroke-linejoin: miter; stroke-linecap: square"/>
   </g>
   <g id="legend_1">
    <g id="patch_86">
     <path d="M 172.838875 78.36675 
L 188.838875 78.36675 
L 188.838875 72.76675 
L 172.838875 72.76675 
z
" style="fill: #ed7d31"/>
    </g>
    <g id="text_89">
     <!-- up -->
     <g transform="translate(195.238875 78.36675)scale(0.08 -0.08)">
      <defs>
       <path id="DejaVuSans-70" d="M 1159 525 
L 1159 -1331 
L 581 -1331 
L 581 3500 
L 1159 3500 
L 1159 2969 
Q 1341 3281 1617 3432 
Q 1894 3584 2278 3584 
Q 2916 3584 3314 3078 
Q 3713 2572 3713 1747 
Q 3713 922 3314 415 
Q 2916 -91 2278 -91 
Q 1894 -91 1617 61 
Q 1341 213 1159 525 
z
M 3116 1747 
Q 3116 2381 2855 2742 
Q 2594 3103 2138 3103 
Q 1681 3103 1420 2742 
Q 1159 2381 1159 1747 
Q 1159 1113 1420 752 
Q 1681 391 2138 391 
Q 2594 391 2855 752 
Q 3116 1113 3116 1747 
z
" transform="scale(0.015625)"/>
      </defs>
      <use xlink:href="#DejaVuSans-75"/>
      <use xlink:href="#DejaVuSans-70" x="63.378906"/>
     </g>
    </g>
    <g id="patch_87">
     <path d="M 172.838875 90.10925 
L 188.838875 90.10925 
L 188.838875 84.50925 
L 172.838875 84.50925 
z
" style="fill: #4876ca"/>
    </g>
    <g id="text_90">
     <!-- down -->
     <g transform="translate(195.238875 90.10925)scale(0.08 -0.08)">
      <defs>
       <path id="DejaVuSans-77" d="M 269 3500 
L 844 3500 
L 1563 769 
L 2278 3500 
L 2956 3500 
L 3675 769 
L 4391 3500 
L 4966 3500 
L 4050 0 
L 3372 0 
L 2619 2869 
L 1863 0 
L 1184 0 
L 269 3500 
z
" transform="scale(0.015625)"/>
      </defs>
      <use xlink:href="#DejaVuSans-64"/>
      <use xlink:href="#DejaVuSans-6f" x="63.476562"/>
      <use xlink:href="#DejaVuSans-77" x="124.658203"/>
      <use xlink:href="#DejaVuSans-6e" x="206.445312"/>
     </g>
    </g>
   </g>
  </g>
 </g>
 <defs>
  <clipPath id="pf8b7c36c61">
   <rect x="43.2" y="11.52" width="168.48" height="535.68"/>
  </clipPath>
 </defs>
</svg>
